<svg version="1.1" xmlns="http://www.w3.org/2000/svg" viewBox="0 0 1056 366" width="1056" height="366">
  <!-- svg-source:excalidraw -->
  
  <defs>
    <style>
      @font-face {
        font-family: "Virgil";
        src: url("https://excalidraw.com/Virgil.woff2");
      }
      @font-face {
        font-family: "Cascadia";
        src: url("https://excalidraw.com/Cascadia.woff2");
      }
    </style>
  </defs>
  <rect x="0" y="0" width="1056" height="366" fill="#ffffff"></rect><g stroke-linecap="round" transform="translate(235 51) rotate(0 405.5 152.5)"><path d="M0 0 C0 0, 0 0, 0 0 M0 0 C0 0, 0 0, 0 0 M-0.15 7.02 C0.63 4.8, 3.48 3.07, 5.62 0.01 M-0.3 6.29 C1.68 3.65, 4.06 1.79, 4.88 0.35 M0.36 12.07 C4.55 9.37, 7.77 4.6, 10.45 -1.03 M0.13 12.58 C3.89 6.98, 8.74 2.45, 11.22 0.12 M1.05 17.33 C4.32 12.04, 12.11 7.23, 15.49 0.86 M0.19 18.49 C3 14.08, 7.16 10.4, 15.51 0.97 M1.07 24.2 C7.61 17.44, 9.84 10.72, 20.39 -0.79 M1.09 23.87 C8.21 14.71, 15.46 6.91, 21.67 -0.91 M-0.22 28.93 C8.49 21.39, 14.15 13.08, 27.49 2.13 M0.93 30.35 C9.06 19.91, 19.9 8.19, 25.87 -0.25 M1.34 37.06 C6.85 28.08, 13.06 18.7, 30.4 -0.16 M-0.33 37.32 C6.87 27.63, 14.43 19.89, 32.26 0.13 M-0.95 42.46 C9.36 33.92, 15.09 21.82, 36.89 1.24 M0.51 43.38 C11.28 28.92, 22.38 17.36, 36.32 -0.45 M1.49 48.47 C14.38 34.29, 26.5 18.89, 44.36 0.71 M0.39 48.76 C14.83 31.38, 27.84 14.68, 43.49 0.47 M-0.61 55.38 C16.68 34.86, 36.72 12.19, 46.74 -1.07 M-0.05 55.08 C17.25 33.89, 34.91 14.93, 48.31 0.64 M0.51 61.3 C15.86 46.43, 31.18 27.03, 53.93 1.7 M0.71 61.52 C16.25 43.07, 31.74 24.87, 53.1 0.16 M0.44 65.7 C16.98 45.86, 36.53 24.96, 58.77 0.73 M-0.96 66.59 C15.64 48.59, 29.54 31.45, 59.12 -0.38 M0.8 74.45 C21.56 46, 44.88 22.36, 64.46 0.46 M0.64 72.52 C14.42 56.23, 29.85 39.38, 63.23 -0.87 M1.48 78.94 C24.22 53.92, 46.61 25.95, 67.48 -1.08 M-0.08 78.61 C16.51 60.25, 34.45 40.92, 68.99 0.47 M1.44 85.59 C22.76 59.66, 45.49 34.73, 73.05 -1.56 M1.06 84.04 C23.43 58.46, 46.49 32.17, 75.39 0.14 M-0.42 90.69 C26.01 66.05, 48.06 37.52, 78.05 -1.42 M0.13 91 C22.64 66.15, 44.81 40.26, 79.99 -0.49 M-0.4 97.93 C29.37 61.36, 60.43 29.2, 86.48 -1.14 M0.1 97.49 C22.15 71.73, 44.32 46.77, 85.52 -0.16 M-1.84 101.52 C17.81 79.98, 40.13 56.97, 88.39 -0.41 M0.28 102.7 C24.78 74.69, 50.83 43.98, 89.11 0.45 M-0.87 111.2 C18.44 87.38, 37.88 66.12, 95.29 0.71 M0.75 109.35 C38.82 66.99, 76.62 23.27, 94.91 -0.28 M0.36 115.82 C37.37 72, 74.92 29.25, 99.13 -1.41 M0.36 115.51 C31.1 79.45, 63.55 44.28, 101.23 -0.68 M0.63 120.17 C28.57 88.24, 62.85 50.86, 107.72 0.79 M-0.09 122.74 C23.27 94.5, 47.02 67.9, 107.25 -0.86 M-1.6 128.51 C29.3 93.74, 59.31 62.21, 111.63 -1.01 M0.11 127.87 C36.61 86.84, 72.97 45.46, 112.12 -0.47 M2.07 133.64 C33.81 96.88, 65.76 59.87, 115.05 0.42 M0.04 133.38 C25.58 102.84, 53.55 72.14, 116.99 1.06 M-1.83 140 C32.74 101.26, 65.73 64.29, 121.95 1 M0.6 140.78 C32.79 103.02, 64.99 66.8, 121.43 0.86 M0.15 145.19 C25.29 116.51, 53.12 88.35, 128.3 0.42 M-0.52 145.36 C37.6 103.9, 73.06 61.19, 126.9 0.04 M1.18 150.96 C49.48 94.68, 96.74 41.89, 131.05 -0.35 M-0.58 153.29 C49.89 94.65, 99.89 36.98, 131.8 0.38 M-0.37 159.8 C41.11 112.53, 80.44 63.3, 136.35 -0.24 M-1.07 158.86 C36.38 115.25, 73.6 72.16, 137.25 -0.16 M1.63 164.38 C30.61 133.55, 58.71 98.5, 142.08 -1.22 M-0.06 164.87 C37.1 119.91, 76.03 76.64, 143.38 -0.24 M-1.8 169.7 C52.15 112.27, 102.63 53.68, 149.6 1.86 M0.4 170.29 C29.85 135.1, 60.42 100.11, 147.31 0.94 M-0.35 177.78 C36.9 137.02, 71.85 94.58, 155.06 0.41 M0.24 176.52 C35.85 135.34, 71.34 94.83, 153.83 -0.35 M-0.63 182.65 C63.45 112.55, 123.92 41.44, 159.86 -0.44 M-0.13 183.19 C55.52 119.24, 110.93 55.49, 159.32 -0.35 M0.89 189.51 C63.09 116.66, 126.49 42.48, 165.67 0.51 M-0.86 188.96 C61.5 119.22, 123.62 48.57, 164.27 -0.63 M-0.64 195.71 C66.33 119.9, 130.25 45.56, 167.85 0.88 M0.67 195.44 C50.42 137.2, 99.85 78.26, 169.1 0.61 M0.92 200.55 C66.81 122.79, 136.41 45.55, 173.86 0.88 M-0.62 200.54 C44.82 148.66, 88.81 97.28, 174.77 -0.62 M1.59 208.47 C62.48 132.4, 127.52 59.2, 180.23 0.24 M0.18 206.22 C50.11 150.06, 100.42 91.65, 180.32 0.79 M-0.06 213.65 C47.92 160.84, 94.78 103.13, 184.75 0.66 M-0.43 214.06 C45.26 161.02, 90.96 109.84, 185.34 0.36 M-1.56 218.92 C43.36 170.92, 88.38 119.99, 192.03 0.1 M-0.1 220.36 C48.03 162.11, 98.15 105.65, 190.44 0.43 M-0.03 225.95 C79.23 134.04, 154.72 45.02, 197.41 1.13 M0.82 225.32 C75.02 138.77, 151.81 52.85, 196.62 -0.53 M0.18 230.96 C42.98 183.3, 83.74 136.35, 201.67 -0.44 M-0.72 232.18 C47.74 177.57, 96.79 121.61, 201.18 0.38 M-0.26 237.68 C60.4 164.57, 122 94.74, 207.25 -1.71 M0.83 236.96 C64.94 162.36, 129.58 89.06, 206.26 0.2 M-0.94 244.98 C44.5 195.4, 87.21 145.13, 211.76 -0.92 M0.21 243.26 C77.56 155.71, 153.9 68.43, 211.51 -0.12 M-1.33 250.99 C51.73 189.33, 102.63 129.34, 216.32 -1.19 M-0.06 250.55 C74.53 164.74, 148.81 80.17, 216.94 -0.36 M0.19 257.15 C87.53 156.15, 173.37 54.23, 221.68 -1.1 M0.07 255.24 C87.58 154.68, 174.52 53.72, 222.79 0.17 M0.53 262.81 C87.58 160.45, 177.76 56.08, 228.15 -1.61 M-0.05 261.91 C86.01 165.12, 171.94 66.89, 228.25 -0.5 M-0.62 267.3 C58.48 196.81, 120.11 127.36, 232.01 0.39 M0.43 268.45 C58.56 201.07, 116 135.33, 232.6 -0.32 M0.34 273.68 C78.66 187.38, 156.02 100.5, 237.97 0.93 M-0.41 274.47 C47.17 218.76, 95.91 163.05, 238.51 0.29 M0.26 280.21 C86.61 177.92, 175.82 76.45, 243.07 -0.4 M0.05 281.06 C67.35 205.38, 132.7 130.64, 243.44 0.06 M-0.95 285.73 C67.55 208.65, 135.22 132.06, 247.68 0.76 M0.39 286.17 C51.5 226.57, 103.09 166.51, 249.27 0.54 M-0.08 293.53 C96.34 184.76, 190.95 74.42, 253.77 -0.99 M-0.32 293.12 C87.62 192.05, 174.25 93.44, 254.1 0.24 M0.8 299.43 C74.21 216.3, 146.07 132.85, 259.84 1.4 M0.39 298.69 C64.54 225.87, 128.11 152.76, 259.45 0.66 M-0.91 304.33 C55.25 240.26, 112.27 175.21, 265.28 0.57 M-0.17 305.23 C97.71 189.14, 198.3 74.54, 265.48 -0.18 M2.67 307.63 C76.41 223.7, 148.71 143.01, 269.79 1.18 M3.55 307.54 C101.2 194.52, 199.44 81.9, 269.74 0.55 M8.26 307.38 C98.4 201.61, 189.89 97.96, 275.19 0.4 M8.21 307.29 C70.43 234.62, 133.7 163.78, 275.29 -0.53 M14.7 308.16 C109.32 195.78, 206.98 84.93, 280.36 0.13 M13.25 307.53 C94.73 214.16, 175.34 121.82, 281.23 -0.23 M18.54 307.14 C85.7 230.73, 154.4 151.1, 285.48 -0.83 M18.85 307.27 C124.24 183.71, 231.5 60.74, 286.53 0.24 M24.59 306.95 C120.46 194.94, 218.37 84.83, 291.3 0.83 M23.84 307.86 C126.31 192.46, 225.37 77.73, 291.65 0.25 M29.63 307.8 C134.66 186.39, 238.76 66.52, 296.77 0.67 M29.47 308.07 C111.03 215.98, 191.68 124.5, 296.83 -0.17 M35.57 306.33 C105.45 225.53, 172.86 148.06, 302.76 0.78 M34.44 307.49 C139.71 188.16, 243.38 68.59, 301.45 0.26 M39.83 307.62 C100.98 238.31, 161.33 167.53, 307.37 -0.29 M39.79 308.16 C146.91 185.08, 252.26 62.93, 307.9 -0.27 M46.27 306.31 C137.53 203.29, 226.94 99.82, 311.97 0.12 M46.07 306.97 C136.88 202.8, 226.28 100.37, 312.1 0.5 M51.14 307.51 C149.29 193.68, 250.41 76.9, 318.71 -1.28 M50.56 307.27 C127.13 218.09, 203.26 130.28, 318.38 0.22 M56.25 307.88 C128.75 224.11, 202.18 139.2, 323.21 0.55 M56.6 306.78 C135.61 215.21, 215.06 123.57, 323.38 0.18 M61.55 307.7 C138.02 217.55, 215.72 127.74, 329.87 0.04 M60.82 308.12 C114.91 246.01, 168.19 183.66, 328.76 -0.12 M67.17 307.47 C129.01 238.32, 189.2 168.93, 333.42 -0.25 M66.91 306.75 C153.91 205.09, 242.48 103.05, 333.89 -0.17 M72.74 306.65 C171.97 194.04, 269.66 80.33, 338.67 0.31 M71.77 308.1 C156.54 210.27, 239.52 113.93, 339.75 -0.6 M76.52 307.69 C170.96 204.38, 261.38 98.05, 344.33 -0.83 M76.35 307.41 C179.69 189.14, 282.89 69.02, 344.94 -0.37 M82.4 306.56 C148.84 233.23, 212.06 161.48, 348.75 1.27 M82.88 307.55 C141.58 238.85, 201.62 170.42, 349.97 0.71 M88.06 308.76 C157.09 228.37, 227.64 147.01, 354.77 0.69 M86.98 307.49 C143.22 243.62, 199.15 180.5, 355.54 -0.06 M94.12 307.87 C165.22 222.39, 238.23 139.89, 360.04 1.14 M93.57 307.02 C165.04 223.01, 238.05 138.93, 360.22 0.08 M97.86 307.52 C159.2 241.8, 215.91 172.7, 366.19 -1.13 M98 307.89 C153.13 243.23, 208.72 179.94, 365.25 -0.31 M103.03 308.1 C180.76 220.13, 256.56 134.9, 370.33 0.3 M103.73 307.81 C169.67 232.97, 235.22 158.57, 371.2 -0.18 M109.16 308.76 C194.46 205.56, 281.33 106.19, 377.09 -0.22 M108.96 308.16 C213.02 187.69, 318.24 67.26, 376.82 0.19 M114.66 307.43 C172.8 240.66, 228.81 173.46, 381.25 -0.63 M114.33 306.98 C177.98 233.26, 242.26 158.48, 381.17 0.33 M119.49 307.23 C196.85 218.73, 273.08 131.68, 386.4 -0.06 M119.58 307.75 C190.63 225.39, 260.62 145.19, 386.91 0.21 M126.04 307.6 C193.93 227.37, 263.06 146.6, 392.04 1.03 M124.59 307.9 C183.6 238.95, 241.99 171.25, 392.49 0.26 M130.66 308.58 C211.25 215.25, 291.6 123.74, 396.74 0.76 M130.4 307.68 C206.96 218.04, 284.55 127.55, 397.63 -0.2 M135.71 306.32 C229.91 200.88, 320.33 95.51, 402.91 0.13 M135.9 307.48 C207.49 226.62, 277.27 146.15, 402.17 0.38 M141.02 308.42 C235.01 198.33, 329.42 90.55, 408.93 0.73 M141.03 307.81 C205.14 231.33, 271.62 154.54, 408.25 -0.22 M147.07 307.3 C208.97 235.37, 272.81 161.61, 413.9 0.21 M145.7 307.81 C222.37 217.43, 299.72 128.84, 413.56 -0.25 M150.94 306.64 C233.85 209.23, 318.34 114.21, 418.64 -1.2 M150.76 307.36 C226.45 220.48, 301.33 133.99, 419.1 0.06 M156.12 308.01 C218.59 233.55, 283.08 159.78, 423.8 -0.8 M156.92 306.75 C252.11 196.7, 347.03 86.53, 423.56 0.66 M161.78 308.54 C228.39 229.37, 293.98 153.79, 428.6 -0.13 M161.32 307.69 C221.02 236.35, 280.99 167.45, 429.91 0.18 M168.16 307.48 C245.43 216.06, 325.99 124.32, 433.44 -0.7 M167.45 307.36 C262.24 198.38, 358.91 89.07, 434.28 0.32 M172.51 308.27 C252.18 214.48, 335.92 119.07, 440.82 0.42 M172.96 307.29 C256.51 212.29, 338.44 117.09, 440.32 -0.1 M178.89 307.39 C258.24 215.65, 336.1 124.18, 444.63 -0.7 M178.42 307.34 C263.67 207.96, 349.79 108.61, 444.73 0.33 M183.05 307.55 C245.45 237.03, 307.72 164.83, 451.06 0.68 M182.86 307.93 C245.54 234.04, 309.75 160.47, 450.49 -0.28 M188.85 306.5 C282.97 196.5, 378.41 85.79, 456.79 0.05 M189.25 307.38 C272.58 211.89, 355.39 116.36, 455.77 0.53 M193.17 308.02 C260.62 228.77, 327.64 151.7, 461.02 -0.89 M193.39 307.41 C274.09 213.83, 356.47 119.28, 461.61 -0.77 M199.44 307.02 C291.9 200.48, 386.52 94.84, 465.85 -1.02 M198.66 307.98 C284.25 207.83, 371.11 107.81, 466.3 -0.44 M203.6 307.86 C306.67 187.25, 409.92 68.66, 472.14 0.89 M204.91 307.88 C283.18 215.78, 362.63 124.76, 471.38 0.65 M209.97 308.17 C306.6 197.19, 402.56 87.05, 476.48 0.04 M208.91 308.17 C262.95 245.89, 316.53 183.49, 477.06 -0.11 M214.89 307.35 C304.85 204.4, 396.96 97.71, 482.68 0.5 M215.25 307.53 C314.9 190.67, 414.72 75.67, 481.64 0.8 M219.31 307.48 C282.93 233.59, 347.75 161.14, 487.62 -0.71 M220.24 308.31 C304.93 211.54, 389.22 113.87, 487.93 -0.54 M226.36 307.76 C284.07 241.2, 340.54 174.91, 491.57 0.66 M225.74 307.8 C330.98 186.57, 436.26 65.52, 492.75 0.62 M229.59 307.67 C299.14 226.54, 370.21 147.99, 498.07 -0.65 M230.74 307.65 C302.42 226.25, 374.41 143.41, 498.44 0.02 M237.14 308.01 C342.03 185.42, 445.78 62.47, 504.31 -0.67 M236.32 307.3 C340.19 188.48, 445.2 67.72, 503.44 0.51 M242.23 307.46 C306.25 233.39, 372.46 158.16, 509.81 -0.65 M241.73 307.88 C297.02 241.6, 354.3 176.38, 509.43 -0.09 M247.34 308.02 C315.22 228.56, 382.79 149.62, 513.51 0.47 M247.09 307.86 C325.04 218.33, 403.57 127.9, 514.06 0.49 M252.41 307.14 C319.45 228.68, 385.7 151.86, 520.22 0.55 M251.71 308.08 C337.69 209.33, 423.37 110.85, 519.21 0.17 M256.9 307.59 C324.58 227.09, 395.24 146.59, 524.38 -0.42 M257.86 307.37 C313.78 242.29, 369.66 177.96, 524.87 -0.29 M263.45 307.39 C337.01 223.5, 408.5 139.65, 529.84 0.75 M262.45 307.56 C344.88 209.96, 427.52 114.66, 530.73 -0.47 M268.92 307.48 C336.68 227.2, 407.64 147.1, 535.84 0.35 M268.62 306.96 C358.34 204.22, 448.06 101.42, 535.55 0.25 M272.44 308.25 C364.42 201.79, 457.64 96.78, 541.27 -0.14 M272.9 307.49 C362.58 204.34, 452.61 100.87, 541.05 -0.56 M279.72 308.37 C335.48 242.78, 388.46 180.22, 546.15 0.27 M279.04 307.12 C345.05 231.65, 412.45 154.33, 545.69 -0.02 M284.59 307.96 C350.36 231.58, 414.92 155.73, 551.44 -1.26 M284.13 308.11 C359.68 219.39, 435.12 131.35, 551.89 0.14 M288.77 307.46 C346.27 240.58, 405.19 173.7, 556.15 0.58 M289.01 307.18 C349.82 236.62, 411.19 165.75, 556.51 -0.27 M294.47 308.53 C397.71 188.97, 499.04 70.81, 561.54 0.38 M294.41 307.11 C368.4 221.75, 443.25 135.26, 562.43 0.14 M299.82 306.29 C387.54 207.63, 473.91 109.06, 565.99 0.73 M300.29 306.92 C386.39 208.28, 472.99 108.95, 566.92 0.53 M304.77 307.95 C389.7 210.76, 472.51 117.12, 573.69 -0.11 M305.26 307.9 C405.01 189.56, 506.32 73.32, 573.15 0.09 M310.27 308.11 C397.17 204.96, 485.62 103.64, 578.42 -0.5 M309.76 307.91 C384.87 223.56, 457.91 139.35, 577.45 -0.27 M316.38 307.99 C373.83 237.53, 433.6 169.77, 582.6 -0.36 M315.39 308.02 C390.59 223.04, 464.96 137.57, 582.43 0.75 M321.54 307.16 C411.11 205, 499.86 99.75, 588.83 0.54 M320.39 307.73 C374.8 246.51, 428.72 184.07, 588.58 0.43 M327.27 306.4 C393.57 231.18, 461.18 156.15, 592.49 0.75 M326.73 307.4 C383.56 242.21, 439.82 177.75, 593.07 0.55 M331.85 307.57 C390.41 236.83, 452.71 166.62, 599.68 0.17 M331.16 308.34 C417.27 205.49, 505.37 105.35, 599.04 -0.17 M337.99 306.91 C433.16 198.14, 527.47 86.68, 603.29 -0.19 M337.33 307.85 C402.39 231.13, 467.79 155.9, 604.44 0.66 M342.08 308.17 C444.81 189.02, 549.1 70.95, 610.48 -0.42 M341.37 308.12 C405.53 232.44, 470.71 157.52, 609.75 -0.25 M348.43 307.05 C419.37 227.06, 487.21 146.63, 614.3 0.31 M347.33 306.93 C451.09 188.76, 553.09 70.86, 614.58 0.31 M351.91 308.77 C452.06 193, 554.3 78.15, 621.15 -0.71 M352.75 307.58 C413.75 235.2, 475.15 164.27, 619.87 -0.56 M358.84 308.08 C439.4 214.36, 520.09 121.14, 624.66 1.17 M358.53 307.4 C427.5 225.64, 497.35 145.17, 625.61 0.3 M363.02 306.84 C429.07 232.11, 495.4 156.54, 630.9 0.22 M363.39 307.7 C460.7 193.64, 558.31 82, 630.75 -0.52 M368.77 307.28 C469.4 193.68, 567.77 80.21, 636.68 0.09 M369.31 307.78 C438.59 226.95, 507.6 146.88, 635.43 0.27 M373.65 307.48 C439.86 231.28, 504.36 155.11, 641.53 0.45 M373.79 308.27 C428.15 246.33, 482.77 184.37, 641.98 0.06 M380.4 307.91 C482.44 184.82, 586.51 65.25, 645.88 -0.92 M379.67 307.35 C481.74 189.08, 584.88 70.7, 646.06 0.31 M384.09 306.84 C468.92 212.18, 550.94 116.96, 651.96 0.67 M384.11 307.36 C459.06 222.95, 533.69 137.26, 652.03 -0.6 M390.75 306.98 C451.81 235.99, 514.83 164.25, 657.58 1.15 M389.53 307.79 C494.15 187.63, 598.16 67.47, 657.49 0.44 M395.58 308.64 C489.67 198.2, 584.81 89.73, 663.68 -1.3 M394.75 307.38 C454.75 239.09, 515.18 170.87, 663.14 -0.26 M401.66 307.5 C503.35 188.4, 608.33 67.98, 668.09 0.29 M400.44 307.11 C468.24 228.81, 536.57 150.94, 667.19 0.07 M404.78 307.69 C513.28 186.3, 617.82 64.44, 673.08 -0.58 M405.76 307.89 C475.17 230.15, 543.21 151.76, 673.08 0.25 M412.08 306.27 C496.24 210.65, 579.89 113.29, 679.11 0.37 M411.63 306.85 C490.77 216.71, 570.77 125.34, 678.35 -0.4 M415.92 308.59 C478.52 236.74, 537.87 166.47, 683.55 0.4 M416.28 307.27 C486.7 226.03, 558.07 143.52, 684.55 -0.3 M421.33 308.27 C500.04 219.95, 575.17 131.81, 689.94 0.7 M421.77 307.08 C495.71 223.24, 568.88 139.61, 689.42 -0.06 M426.48 306.99 C519.09 202.28, 612.86 94.28, 695.59 -0.34 M427.36 307.7 C520.9 199.65, 614.72 92.41, 694.63 -0.7 M431.81 308.57 C518.4 209.05, 607.19 107.78, 698.64 -0.64 M432.09 307.72 C504.15 225.05, 576.82 140.97, 700.16 -0.31 M437.06 308.38 C498.85 238.13, 561.75 168.58, 704.99 -0.32 M438.03 307.96 C509.88 224.17, 580.84 142.16, 704.7 0.66 M441.62 308.2 C521.13 216.78, 598.76 125.67, 709.77 0.96 M442.98 308.27 C502.85 239.53, 562.65 170.94, 710 0.14 M448.12 307.03 C511.34 235.04, 574.38 161.95, 715.47 1.18 M448.09 307.29 C549.52 189.8, 653.72 70.66, 714.69 -0.01 M452.85 308.64 C559.1 187.42, 663.35 67.56, 719.96 0.01 M452.8 307.4 C556.91 188.91, 660.72 68.79, 720.78 0.3 M458.86 307.11 C547.49 204.84, 636.92 103.41, 726.93 -0.25 M458.68 307.09 C549.36 202.93, 641.59 96.87, 726.4 -0.14 M464.2 307.74 C531.3 228.95, 599.45 151.62, 732.33 -0.24 M464.38 308.18 C534.37 225.48, 605.56 144.01, 731.82 -0.36 M470.55 308.18 C564.54 197.07, 661.91 86.36, 737.03 -0.42 M469.48 307.02 C567.37 192.14, 666.34 78.65, 736.67 0.03 M473.67 308.2 C544.15 229.97, 613.61 150.71, 742.11 0.03 M474.96 307.25 C553.89 217.31, 632.56 127.35, 742.63 -0.21 M480.95 306.38 C572.29 200.1, 667.71 91.01, 746.02 -0.29 M480.4 307.74 C580.57 189.55, 682.6 71.92, 747.29 -0.05 M484.09 307.65 C547.29 239.62, 605.99 172.67, 753.21 0.51 M485.58 307.54 C574.16 205.59, 663.68 103.24, 752.41 -0.5 M489.91 306.62 C555.83 236.6, 616.68 163.2, 757.9 -0.36 M490.99 307.1 C564.04 221.46, 639 134.72, 757.76 0.35 M495.34 308.53 C577.29 213.04, 659.4 119.68, 763.87 -0.35 M496.11 307.74 C549.39 244.12, 603.37 182.12, 763.86 -0.31 M500.44 308.1 C588.13 208.87, 672.4 110.53, 768.19 0.41 M501.03 307.28 C566.5 229.69, 632.78 154.18, 768.05 0.51 M505.52 308.21 C585.34 214.71, 664.17 124.96, 774.37 0.23 M505.84 307.29 C597.3 202.13, 687.38 98.73, 773.84 -0.48 M510.94 307.71 C565.09 243.69, 620.97 180.72, 778.33 -0.97 M512.2 307.62 C582.51 226.14, 652.91 145.71, 779.23 -0.1 M516.43 306.71 C606.32 206.94, 694.46 103.51, 783.74 -0.64 M517.27 308.07 C601.05 210.04, 686.4 112.01, 784.95 -0.81 M523.03 307.75 C599.82 217.22, 674.76 130.12, 790.19 0.73 M523.02 307.38 C625.69 189.29, 727.88 70.81, 789.48 -0.15 M528.04 307.79 C629.63 190.95, 732.03 71.52, 795.27 0.67 M527.9 307.14 C622.1 198.52, 718.25 88.94, 795.02 -0.64 M533.67 308.19 C599.18 232.34, 663.9 157.43, 800.48 0.09 M532.83 307.41 C599.79 230.6, 666.56 153.58, 800.29 -0.32 M537.43 306.78 C635.97 195.62, 731.94 84.42, 806.58 -0.07 M538.46 307.32 C593.24 244.39, 648.74 180.28, 805.42 -0.46 M542.4 308.53 C633.24 202.47, 726.52 96.79, 810.74 -0.12 M542.73 308.13 C651.13 184.69, 758.07 61.39, 811.4 -0.54 M548.7 307.21 C610.27 241.1, 668.32 172.59, 814.72 2.44 M549.11 307.76 C615.83 229.56, 682.6 152.65, 813.46 2.69 M555 308.09 C644.97 206.5, 732.1 103.6, 813.94 10.15 M554.34 308.15 C641.85 205.99, 731.68 102.79, 813.52 8.51 M558.54 306.33 C622.1 234.73, 688.21 158.52, 815.08 15.34 M559.9 307.78 C613.45 244.68, 667.42 180.81, 814.03 14.74 M565.07 307.16 C662.94 197.14, 760.27 84.28, 814.37 20.6 M564.15 308.32 C634.89 224.67, 706.66 142.04, 814.35 20.72 M571 307.62 C662.47 201.81, 757.91 92.57, 813.58 25.87 M570.27 307.45 C632.25 235.82, 695.84 164.02, 813.65 27.02 M575.67 307.58 C649.95 218.96, 727.16 131.29, 812.71 33.67 M574.62 307.99 C627.84 247.69, 678.79 187.1, 814.33 33.23 M579.73 308 C647.4 231.12, 709.99 158.57, 813.51 39.25 M580.72 307.04 C641.79 236.76, 703.89 164.28, 814.12 39.35 M586.35 307.49 C667.38 210.05, 749.52 116.02, 815 44.55 M586.31 307.64 C635.34 253.53, 683.59 196.94, 814.07 45.79 M591.12 308.31 C646.79 243.67, 704.24 180.9, 812.64 51.09 M591.14 307.8 C674.67 211.34, 758.77 115.22, 813.9 51.06 M596.35 307.24 C646.54 251.08, 694.06 195.5, 813.84 56.29 M596.75 308.41 C668.14 225.54, 739.87 144.35, 814.21 57 M600.66 307.34 C675.49 227.39, 745.99 144.7, 812.91 62.76 M602.7 307.26 C654.9 243.85, 709.65 180.96, 813.42 63.76 M606.03 308.51 C650.12 255.71, 696.56 205.07, 814.59 69.53 M607.55 307.28 C671.96 233.42, 735.55 158.75, 814.08 69.76 M612.24 308.59 C656.79 251.06, 704.34 198.92, 814.25 74.82 M613.07 307.86 C653.64 261.36, 694.59 215.72, 813.52 76.21 M618.56 307.21 C681.32 232.72, 743.6 159.16, 812.84 83.19 M617.2 307.26 C675.7 241.53, 734.26 173.64, 813.41 82.4 M623.44 307.7 C690.26 227.65, 760.87 149.84, 814.84 86.28 M623.95 306.71 C673.13 252.31, 720.58 196.91, 814 88.32 M629.71 309.13 C690.69 236.98, 753.28 165.57, 814.09 94.51 M628.86 307.16 C683.91 242.42, 740.52 177.28, 813.43 93.47 M635.12 307.99 C699.62 229.92, 765.9 156.01, 814.84 99.67 M633.35 307.72 C685.53 250.22, 735.88 192.06, 813.43 99.88 M637.57 308.1 C695.87 244.51, 751.3 180.61, 814.92 106.4 M639.32 307.86 C697.43 241.21, 755.94 174.23, 814.68 105.44 M644.01 307.52 C689.7 252.3, 739.53 195.21, 814.63 113.73 M645.34 307.67 C694.05 248.84, 745.46 190.15, 814.22 113.01 M647.91 308.32 C702.35 246.66, 755.95 183.56, 815.28 117.95 M650.16 306.96 C693.5 255.98, 739.28 204.19, 813.57 117.37 M653.65 306.34 C709.82 246.33, 762.58 187.09, 812.32 125.99 M655.31 307.3 C710.96 242.2, 767.54 176.76, 814.75 124.98 M660.33 307.68 C706.71 253.72, 754.55 197.99, 813.34 129.52 M660.96 307.55 C692.78 271.3, 723.8 235.6, 813.71 130.93 M666.29 309.38 C710.16 257.73, 755.27 205.74, 814.79 137.72 M665.87 308.52 C699.67 267.55, 733.57 228.05, 814.28 136.85 M672.34 308.76 C702.1 269.48, 733.17 235.55, 813.22 141.6 M671.58 307.77 C713.25 258.38, 754.15 211.38, 813.33 143.32 M676.58 308.17 C704.69 276.31, 734.32 243.61, 815.47 150.22 M675.73 307.04 C722.09 253.96, 767.88 201.56, 814.97 148.84 M680.91 307.14 C719.83 265.02, 753.65 224.17, 812.72 154.3 M681.33 308.07 C717.64 265.03, 753.91 222.87, 813.56 154.2 M686.03 307.2 C712.17 275.65, 739.44 246.06, 815.26 159.88 M686.69 308.1 C713.71 274.96, 742.12 241.02, 813.48 161.84 M691.55 306.83 C725.31 269.35, 756.78 231.29, 814.45 165.63 M691.61 306.98 C739.66 251.82, 787.07 197.8, 813.52 167.26 M698 305.88 C731.43 266.1, 765.32 226.79, 812.54 171.8 M696.6 308.62 C732.66 267.73, 765.46 228.82, 813.19 173.28 M702.75 308.57 C739.12 261.55, 776.42 216.82, 812.33 178.36 M703.58 307.59 C731.43 273.04, 761.07 238.67, 814.16 179.38 M706.79 308.33 C731.97 280.75, 754.86 253.54, 814 183.8 M707.04 307.31 C736.48 274.02, 764.1 243.73, 814.27 184.75 M714.25 306.55 C749.95 262.79, 788.98 223.25, 811.84 190.64 M712.66 307.12 C751.94 263.04, 792.91 217.31, 814.6 191.08 M719.3 309.43 C751.92 268.95, 784.87 230.07, 814.53 196.51 M718.5 308.37 C748.61 274.31, 775.24 242.05, 814.84 197.94 M725.58 306.77 C755.23 270.66, 786 237.27, 815.3 203.23 M723.65 307.55 C749.02 279.76, 773.83 250.74, 813.82 203.1 M729.17 308.8 C748.28 286.04, 766.8 267.68, 814.75 208.33 M729.37 308.34 C754.11 278.24, 777.9 249.47, 813.41 210.39 M733.98 309 C752.51 286.98, 771.31 265.74, 815.77 217.93 M733.75 306.74 C757.67 281.53, 780.91 255.86, 813.76 215.78 M738.74 308.88 C766.31 277.11, 791.23 249.87, 814.33 222.22 M738.9 307.13 C766.75 276.69, 795.02 244.41, 813.22 223.25 M744.4 308.82 C763.57 284.43, 783.24 264.93, 813.7 228.57 M745.54 307.4 C771.67 277.02, 797.37 245.31, 814.87 227.09 M749.09 308.87 C765.59 291.66, 781.31 271.98, 812.65 232.62 M750.24 307.02 C764.6 290.84, 778.76 273.9, 813.88 235.28 M755.53 307.57 C776.02 282.47, 796.01 261.06, 814.26 239.77 M756.01 308.11 C768.52 293.24, 782.79 277.89, 814.54 240.33 M762 306.76 C774.21 294.07, 787.26 279.75, 814.82 248.06 M761.46 307.62 C778.23 287.28, 797.03 266.4, 814.41 246.35 M765.75 306.38 C785.06 285.51, 802.75 264.46, 812.66 253.68 M765.51 306.31 C777.73 293.5, 790.47 281.15, 813.34 251.93 M769.97 309.31 C779.03 295.69, 789.59 287.45, 812.32 258.06 M770.49 306.93 C787.21 289.19, 802.39 272.09, 814.87 259.44 M774.53 308.91 C787.71 292.92, 802.58 279.77, 814.81 264.95 M776.16 308.02 C789.41 292.2, 802.97 276.62, 814.73 265.43 M782.24 306.08 C788.5 297.76, 800.52 287.13, 812.36 271.94 M782.16 308.29 C793.95 293.69, 806.84 280.05, 814.74 270.39 M787.02 308.35 C798.4 295.88, 806.24 283.81, 815.38 275.3 M787.42 307.91 C793.95 298.81, 803.2 291.38, 814.09 276.96 M790.73 307.39 C798.9 302.51, 802.66 294.85, 815.23 281.55 M793.18 307.4 C799.87 297.94, 807.98 289.52, 813.21 283.66 M796.1 305.91 C804.58 302.64, 807.7 294.54, 814.41 288.47 M797.16 308.73 C801.13 304.52, 803.83 300.64, 814.34 289.28 M803.97 306.58 C806.64 305.43, 809.18 300.55, 814.66 296.08 M803.21 307.37 C806.37 305.15, 807.71 302.14, 813.04 296.1 M807.75 306.93 C810.05 305.6, 811.78 304.73, 814.42 301 M808.78 307.61 C809.91 305.88, 811.81 303.49, 814.26 301.24" stroke="#fab005" stroke-width="0.5" fill="none"></path><path d="M-0.11 -0.76 C198.77 1.2, 397.49 1.48, 811.17 -0.07 M-0.28 -0.02 C303.79 -0.29, 608.06 -0.55, 810.91 -0.08 M811.59 -0.18 C812.58 116.73, 812.53 234.11, 811.43 303.59 M811.69 0.25 C812.58 90.97, 812.78 182.66, 811.33 305.19 M810.96 305.16 C613.54 307.43, 416.96 307.67, 0.02 305.27 M811.29 304.62 C634.8 305.38, 458.68 305.7, -0.08 305.02 M1.42 303.96 C-1.37 191.63, -0.1 79.03, -0.88 0.31 M0.28 305.11 C-1.26 240.75, -1.99 174.77, 0.37 0.66" stroke="#000000" stroke-width="1" fill="none"></path></g><g transform="translate(540.5 10) rotate(0 100 12.5)"><text x="0" y="18" font-family="Virgil, Segoe UI Emoji" font-size="20px" fill="#000000" text-anchor="start" style="white-space: pre;" direction="ltr">Presentation Layers</text></g><g stroke-linecap="round" transform="translate(11.5 62.5) rotate(0 57.5 67)"><path d="M57.97 0.04 C57.97 0.04, 57.97 0.04, 57.97 0.04 M57.97 0.04 C57.97 0.04, 57.97 0.04, 57.97 0.04 M3.37 69.92 C20.19 46.24, 39.11 25.37, 61.87 5.27 M1.83 69.69 C17.43 52.04, 33.53 33.89, 59.94 4 M3.75 74.2 C18.86 59.92, 29.21 44.31, 64.11 4.45 M4.53 72.77 C27.42 46.31, 51.81 18.73, 63.25 5.35 M8.22 74.13 C27.52 54.09, 43.96 30.36, 64.25 8.21 M7.73 75.67 C30.79 51.77, 52.32 25.43, 65.26 10.39 M11.06 77.24 C29.12 60.06, 46.46 39, 68.12 12.36 M10.85 80.19 C25.21 60.17, 43.25 41.45, 68.5 12.54 M13.43 83.26 C26.93 65.03, 41.43 49.91, 70.82 14.28 M12.63 81.93 C30.63 62.02, 48.68 42.14, 70.24 14.9 M14.25 85 C36.45 61.52, 56.96 36.37, 71.55 20.47 M16.29 84.4 C37.11 59.36, 59.94 34.78, 72.49 18.04 M17.05 87.87 C32.35 68.68, 47.49 53.38, 75.77 19.57 M17.57 88.82 C34.58 69.5, 52.88 48.26, 76.47 22.37 M20.14 90.94 C40.13 67.72, 61.13 45.84, 79.49 25.49 M21.12 90.53 C36.5 74.41, 51.62 55.05, 77.97 25.48 M24.83 94.04 C42.65 72.96, 59.16 50.17, 81.35 27.68 M23.98 94.28 C40.6 74.32, 58.14 55.66, 81.78 27.73 M28.25 95.29 C42.82 75.8, 61.32 55.74, 82.83 30.19 M26.53 97.09 C45.35 75.57, 63.96 51.81, 85.08 31.61 M28.24 101.93 C45.17 81.34, 65.54 58.42, 86.51 32.76 M28.69 101.36 C40.69 86.41, 53.54 72.14, 85.87 34.04 M32.84 103.09 C46.86 88.99, 61.1 71.49, 90.14 39.1 M31.56 102.94 C49.73 83.94, 65.86 64.11, 88.36 37.03 M33.16 104.67 C47.26 89.87, 63.01 76.11, 92.93 41.98 M33.58 106.23 C51.18 88.44, 67.75 68.64, 91.34 39.95 M36.89 110.11 C59.95 81.2, 80.6 55.86, 95.7 42.28 M38.17 108.29 C56.94 86.63, 76.68 63.87, 93.7 42.95 M41.18 111.22 C52.08 96.24, 66.05 83.72, 97.69 46.55 M39.93 111.92 C57.02 92.68, 73.82 73.47, 97.36 45.74 M42.09 116.95 C58.6 95.95, 75.45 76.29, 101.52 49.83 M42.22 115.74 C62.27 91.56, 81.52 70.46, 99.44 48.71 M43.58 120.29 C58.26 103.11, 73.28 87.91, 101.92 53.21 M45.4 119.32 C62.07 98.51, 79.53 77.77, 101.3 53.77 M46.2 123.73 C67.49 97.5, 86.75 76.37, 106 54.88 M47.78 121.98 C62.27 105.68, 76.67 90.02, 105.94 55.72 M51.39 126.38 C65.85 109.89, 79.33 92.62, 107.43 59.22 M51.06 124.17 C72.91 99.59, 94.61 71.82, 108.43 58.54 M51.66 129.06 C71.06 108.71, 89.77 89.76, 108.6 61.08 M52.78 127.8 C72.42 105.01, 91.35 82.91, 109.3 62.04 M57.36 129.79 C72.29 112.63, 84.15 98.7, 114.8 66.88 M56.34 130.07 C74.84 109.33, 92.52 89.41, 112.92 64.15 M58.24 134.21 C58.24 134.21, 58.24 134.21, 58.24 134.21 M58.24 134.21 C58.24 134.21, 58.24 134.21, 58.24 134.21 M61.67 133.13 C53.19 126.36, 45.08 118.53, 39.96 111.07 M61.81 132.05 C56.04 126.32, 51.73 122.57, 37.48 110.83 M62.75 126.35 C45.07 113.33, 29.98 98.07, 18.12 88.21 M63.11 127.58 C54.45 119.52, 43.71 112.61, 18.5 89.76 M66.9 125.09 C41.15 103.81, 12.82 80.13, 0.43 66.37 M65.11 125.26 C45.61 107.67, 25.9 88.86, 0.58 67.14 M70.13 120.27 C46.54 99.89, 21.1 83, 5.06 66.38 M68.02 122.74 C47.38 104, 27.23 85.34, 4.02 64.57 M70.82 117.9 C46.34 98.24, 19.45 76.33, 5.75 62.05 M70.72 119.5 C57 106.7, 43.79 94.78, 5.89 61.87 M73.9 117.91 C48.18 94.12, 23.03 73.25, 8.06 59.47 M73.14 117.02 C58.04 102.02, 41.47 86.1, 7.62 58.75 M77.04 114.96 C61.76 97.96, 45.1 85.71, 8.25 56.74 M75.66 113.81 C61.79 100.36, 48.31 87.87, 10.02 55.76 M78.8 109.29 C54.69 88.96, 25.05 63.3, 10.93 52.88 M79.54 109.52 C60.92 94.73, 44.73 80.51, 12.15 51.49 M80.89 107.47 C64.8 91.22, 51.48 78.42, 16.26 49.21 M82.31 106.07 C55.34 83.7, 27.56 61.07, 14.77 49.27 M84.27 105.26 C67.8 89.65, 49.33 72.35, 17.37 45.55 M84.19 103.7 C61.61 84.18, 40.91 65.81, 18.96 45.59 M87.42 100.4 C61.71 79.33, 35.26 56.16, 20.56 43.03 M87.47 100.07 C64.4 81.65, 42.29 61.01, 20.55 44.23 M90.47 99.43 C67.33 79.35, 48.17 63.38, 23.51 40.86 M88.95 98.37 C69.82 81.23, 50.64 64.17, 23.53 39.34 M93.41 94.5 C64.74 72.9, 41.12 51.09, 27.41 39.22 M93.32 94.41 C66.37 72.85, 41.3 51.28, 26.43 37.51 M96.28 90.18 C69.75 70.89, 42.19 46.66, 27.22 35.98 M95.58 92.7 C75.29 75.41, 53.75 57.59, 27.76 34.91 M96.59 87.64 C69.21 66.7, 44.21 44.31, 31.78 29.58 M97.68 88.92 C70.82 67.14, 47.55 45.15, 30.37 31.33 M100.54 86.05 C76.58 65.46, 51.7 41.81, 34.07 27.83 M99.96 84.58 C75.18 65.1, 52.2 43.09, 32.92 27.33 M100.68 83.46 C77.42 62.14, 54.16 40.26, 35.36 26.7 M102.01 82.24 C78.46 62.44, 55.39 42.89, 36.21 24.28 M103.09 78.29 C86.4 61.79, 64.99 44.18, 39.39 23.14 M104.13 80.2 C80.42 57.07, 54.64 33.6, 38.66 21.49 M108.85 77.4 C85.51 59.08, 65.04 38.15, 40.57 17.93 M107.93 76.93 C80.39 53.16, 54.31 31.71, 42.68 18.29 M110.2 74.98 C93.98 60.96, 77.86 45.05, 46.18 16.42 M110.76 73.18 C85.3 51.76, 62.94 32.8, 44.06 15.13 M112.75 69.33 C89.9 53.13, 70.07 30.64, 48.53 11.41 M113.16 71.04 C96.03 57.36, 80.52 44.32, 46.41 13.66 M115.63 65.65 C100.65 54.93, 85.39 40.81, 51.18 11.94 M115.17 68.1 C90.61 45.78, 65.82 25.06, 50.56 9.85 M98.87 48.5 C86.76 37.05, 77.62 26.54, 53.1 6.08 M98.98 48.09 C87.31 38.14, 77.67 27.7, 52.92 6.06 M84.12 29.79 C76.85 20.88, 68.44 14.69, 54.86 5.78 M81.83 28.16 C72.42 20.23, 61.76 9.45, 54.98 4.13 M67.57 8.57 C65.56 6.4, 62.44 6.09, 58.27 1.38 M66.74 8.85 C63.05 6.43, 60.1 2.45, 57.54 1.3" stroke="#fd7e14" stroke-width="0.5" fill="none"></path><path d="M58.83 -0.59 C77.93 24.9, 101.49 51.23, 116.01 69.92 M58.93 -0.06 C80.13 26, 103.79 54.51, 115.46 67.63 M115.67 68.07 C93.82 90.16, 77.32 110.28, 56.9 132.96 M115.27 67.68 C96.19 91.04, 75.49 111.75, 58.79 133.66 M56.86 135.19 C47.29 120.13, 34.71 109.18, -0.92 66.98 M58.33 133.28 C41.33 115.03, 25.86 97.2, -0.31 67.36 M-1.33 68.77 C21.9 42.19, 43.78 19.03, 59.24 0.75 M-0.62 67.43 C18.12 46.54, 36.85 24.58, 57.63 -0.15" stroke="#000000" stroke-width="1" fill="none"></path></g><g transform="translate(31 113) rotate(0 38 17.5)"><text x="38" y="25" font-family="Virgil, Segoe UI Emoji" font-size="28px" fill="#000000" text-anchor="middle" style="white-space: pre;" direction="ltr">HTML</text></g><g stroke-linecap="round" transform="translate(10 220.5) rotate(0 57.5 67)"><path d="M57.97 0.04 C57.97 0.04, 57.97 0.04, 57.97 0.04 M57.97 0.04 C57.97 0.04, 57.97 0.04, 57.97 0.04 M1.27 71.63 C21.94 47.74, 39.55 29.45, 61.04 5.37 M2.74 69.47 C25.99 44.31, 47.48 19.37, 60.04 4.35 M5.74 74.83 C18.67 56.41, 31.13 42.85, 63.92 7.69 M5.34 73.52 C25.31 48.27, 47.91 23.27, 63.31 6.41 M8.52 74.64 C26.46 56.83, 43.63 35.05, 65.88 11.3 M7.56 75.22 C21.83 59.3, 35.71 42.71, 66.05 9.86 M10.09 81.07 C30.29 53.19, 55.21 31.22, 68.84 11.66 M9.62 79.73 C28.68 57.9, 45.49 37.87, 67.98 13.03 M12.32 82.41 C24.61 69.01, 37.04 52.36, 70.17 14.23 M13.41 82.82 C25.46 68.07, 38.63 53.89, 71.11 14.61 M15.98 85.45 C27.47 70.08, 41.62 53.4, 72.06 17.37 M15.35 84.41 C32.35 67.99, 47.42 51.17, 73.38 18.77 M18.2 90.37 C31.85 73.91, 44.94 56.52, 78.38 20.81 M18.05 87.63 C36.06 66, 56.58 44.33, 76.84 20.84 M21.26 91.23 C43.81 65, 63.55 39.56, 77.51 24.08 M20.48 90.5 C31.75 79.11, 43.86 65.23, 78.76 23.96 M23.46 94.38 C44.73 70.26, 66.48 44.39, 81.09 28.16 M23.05 94.63 C40.74 73.84, 59.54 53.98, 81.61 27.95 M26.53 95.39 C47.41 73.49, 68.29 46.8, 82.89 29.99 M26.33 97.31 C48.6 72.78, 68.79 48.66, 84.27 30.03 M27.19 101.29 C48.69 74.5, 70.38 51.98, 87.62 34.86 M28.87 99.98 C44.85 82.05, 61.93 62.66, 86.08 34.45 M33.19 102.66 C44.4 91.25, 56.37 76.96, 87.7 36.07 M32.57 103.57 C47.01 85.17, 61.2 68.72, 89.92 38.35 M34.92 107.92 C45.36 90.04, 61.56 76.34, 92.12 39.45 M34.49 106.96 C50.57 89.84, 64.29 70.81, 92.32 39.5 M37.41 107.45 C54.68 87.01, 71.68 67.91, 93.22 41.72 M38.23 108.36 C55.73 87.72, 75.85 66.55, 94.56 42.89 M39.96 111.82 C51.74 98.97, 66.87 79.69, 98.16 47.46 M39.75 111.74 C52.81 95.65, 67.93 80.06, 97.41 46.92 M44.14 115.92 C65.24 91.47, 86.74 64.18, 100.49 51.31 M42.72 116.19 C57.51 97.48, 73.8 79.3, 98.91 49.78 M45.41 117.23 C67.47 93.39, 85.53 67.73, 103.47 54.89 M44.35 118.38 C64.8 96.26, 83.95 74.24, 101.13 53.65 M48.47 120.68 C64.63 101.82, 85.7 81.08, 107.01 57.21 M48.12 122.69 C62.97 103.46, 79.62 83.72, 105.22 55.29 M50.16 125.12 C70.84 102.12, 87.91 80.56, 108.48 59.18 M50.85 123.85 C60.68 112.78, 73.84 99.44, 107.59 59.77 M52.23 127.8 C70.06 107.17, 87.82 89.02, 111.43 63.23 M52.86 128.63 C65.61 113.35, 79.97 97.26, 108.93 62.33 M54.85 131.2 C68.47 117.73, 80.17 102.9, 114.47 65.77 M55.66 130.98 C67.44 117.66, 79.31 103.87, 112.31 64.02 M58.24 134.21 C58.24 134.21, 58.24 134.21, 58.24 134.21 M58.24 134.21 C58.24 134.21, 58.24 134.21, 58.24 134.21 M59.65 130.44 C54.51 124.44, 47.36 120.6, 40.16 111.59 M61.78 132.08 C53.27 124.61, 46.13 119.36, 37.8 112.31 M62.03 128.5 C54.39 121.45, 43.28 109.97, 16.88 88.19 M62.63 127.32 C54.6 119.67, 45.46 112.03, 19.2 89.77 M67.21 124.8 C45.87 108.88, 27.41 92.2, -0.15 68.24 M66.77 125.59 C43.54 105.14, 19.79 85.18, 0.77 67.87 M66.89 121.64 C54.17 109.47, 39.45 93.37, 4.58 65.39 M68.56 122.35 C52.25 107.97, 37.66 94.94, 3.46 65.47 M71.37 120.73 C58.38 106.18, 43.92 97, 6.01 60.93 M70.47 118.65 C46.61 98.91, 22.16 77.22, 5.65 61.23 M72.4 117.41 C57.67 103.71, 42.91 86.75, 9.41 58.49 M73.21 116.58 C58.31 103.11, 42.83 89.48, 8.41 58.55 M75.93 112.8 C54.17 94.46, 32.75 74.77, 11.89 55.15 M76.75 113.66 C55.53 94.82, 35.86 78.87, 10.24 55.87 M80.99 112.01 C57.1 93.84, 35.27 75.44, 14.66 53.72 M78.5 110.24 C54.49 88.78, 30.68 66.51, 13.6 53.2 M80.46 108.3 C64.93 92.11, 43.4 76.16, 16.85 47.49 M82.32 107.92 C65.91 93.18, 50.03 79.62, 16.03 50.05 M83.87 105.32 C68.02 87.27, 48.95 72.81, 19.57 47.82 M84.69 104.95 C71.07 92.33, 54.9 79.6, 18.52 47.27 M86.29 101.23 C67.7 86.06, 51.06 68.28, 20.74 42.29 M87.74 100.62 C61.3 77.42, 35.44 55.74, 21.56 42.42 M91.03 98.96 C76.04 84.19, 59.99 71.9, 23.89 38.89 M89.41 98.7 C67.51 78.87, 44.69 59.49, 24.29 40.16 M90.55 94.32 C70.61 80.22, 54.72 59.65, 24.96 36.25 M92.46 95.83 C68.93 75.09, 45.94 54.62, 26.52 37.69 M93.22 90.26 C76.45 77.05, 56.73 57.59, 29.14 35.75 M94.65 92.91 C77.5 75.14, 59.75 59.56, 27.89 35.15 M95.4 88.36 C70.35 68.33, 46.84 47.74, 29.67 31.79 M97.01 88.88 C83.18 76.04, 70.64 65.34, 31.94 30.98 M99.25 85.63 C80.7 71.78, 65.04 53.78, 32.65 27.93 M99 84.71 C77.05 64.58, 53.83 44.93, 33.17 28.4 M101.04 82.81 C87.9 67.51, 71.74 52.83, 35.84 27.07 M103.05 81.93 C88.48 70.66, 74.25 59.72, 37.2 24.77 M104.95 81.13 C82.73 58.26, 60.71 40.32, 37.5 23.69 M105.67 78.59 C82.98 61.14, 62.39 42.41, 39.82 21.99 M107.18 77.9 C88.89 57.45, 68.33 43.11, 43.19 17.95 M107.83 77.07 C86.08 57.56, 63.97 39.71, 41.07 19.95 M110.69 72.62 C82.79 52.14, 59.62 28.6, 42.58 15.99 M108.98 73.46 C91.79 57.04, 73.41 41.73, 44.39 16.87 M114.08 71.23 C95.94 53.87, 78.89 41.47, 48.26 12.02 M112.22 69.96 C93.6 52.36, 73.43 35.58, 46.65 12.79 M114.35 68.29 C99.89 56.31, 86.65 40.63, 48.55 8.55 M114.35 66.29 C92.63 47.57, 71.21 28.78, 49.3 9.89 M100.89 46.72 C84.25 34.65, 74.06 25.79, 50.33 6.57 M98.1 47.72 C81.43 31.11, 64.59 15.84, 52.42 7.95 M82.88 29.27 C77.49 22.44, 68.52 18.41, 55.84 5.75 M82.83 27.63 C72.28 19.55, 60.07 10.09, 53.84 4.77 M65.86 9.19 C62.98 5.79, 60.47 4.23, 57.47 1.98 M66.82 8.81 C63.64 6.09, 59.63 2.33, 57.3 1.3" stroke="#fd7e14" stroke-width="0.5" fill="none"></path><path d="M56.61 0.74 C79.6 24.86, 99.93 49.47, 115.51 66.88 M58.19 0.08 C76.91 23.15, 97 47.18, 115.77 67 M115.75 69.02 C102.67 80.73, 89.08 98.62, 58.26 133.12 M115.1 68.67 C102.99 81.84, 91.2 95.07, 57.78 134.62 M56.09 133.03 C43.08 114.96, 24.59 98.46, -1.08 69.23 M57.89 133.54 C45.06 119.82, 31.93 104.35, 0.02 67.47 M-1.05 67.61 C13.64 52.71, 24.75 36.46, 59.04 0.1 M0.21 68.01 C21.53 42.89, 41 20.3, 58.83 -0.19" stroke="#000000" stroke-width="1" fill="none"></path></g><g transform="translate(36.5 271) rotate(0 31 17.5)"><text x="31" y="25" font-family="Virgil, Segoe UI Emoji" font-size="28px" fill="#000000" text-anchor="middle" style="white-space: pre;" direction="ltr">Json</text></g><g stroke-linecap="round" transform="translate(865.5 68.5) rotate(0 84 63)"><path d="M0 0 C0 0, 0 0, 0 0 M0 0 C0 0, 0 0, 0 0 M-0.72 7.09 C1.58 3.79, 3.01 2.56, 5.35 0.08 M-0.09 6.39 C1.3 4.83, 2.6 3.69, 5.33 0.42 M0.95 13.46 C3.84 9.75, 6.25 5.56, 10.61 0.18 M0.68 11.68 C4.49 7.84, 7.86 1.72, 11.41 -0.37 M-1.21 19.51 C5.31 13.63, 11.29 9.3, 14.4 -0.92 M-0.08 18.24 C5.36 11.46, 10.42 5.31, 15.1 0.03 M1.87 23.25 C7.59 16.37, 10.63 12.58, 23.22 1.85 M0.85 23.53 C7.4 16, 13.4 9.51, 21.34 -0.88 M1.55 29.13 C9.05 18.57, 15.93 8.9, 25.51 1.58 M-0.02 30.08 C8.58 21.34, 16.02 12.56, 26.03 0.26 M0.55 38.82 C10.49 26.36, 20.95 12.67, 33.63 -0.54 M0.69 37.74 C6.96 27.79, 14.73 20.23, 31.15 -0.78 M-0.59 40.7 C12.04 26.29, 27.29 9.95, 36.79 -0.34 M-0.24 41.93 C7.96 33.07, 14.1 25.57, 37.17 1.21 M0.67 48.86 C17.91 30.96, 32.49 10.46, 42.5 -1.84 M-1.12 49.03 C13.26 33.72, 27.47 17.43, 42.65 -1.07 M1.66 52.7 C17.77 34.4, 32.02 18.47, 49.5 1.55 M-0.44 55.17 C14.42 37.44, 29.77 19.64, 48.45 -0.26 M-0.53 59.75 C20.23 39.29, 38.58 15.84, 53.2 -0.16 M-0.62 61.35 C10.82 48.8, 22.78 36.01, 53.34 -0.33 M-0.33 69.17 C21.59 42.98, 44.12 18.5, 58.62 1.3 M-1.1 68.28 C14.81 51.78, 29.16 33.52, 58.19 0.58 M0.57 74.89 C17.32 53.67, 32.65 37.61, 61.84 1.19 M-0.81 73.73 C13.03 57.06, 27.26 41.27, 63.61 0.22 M-0.55 78.63 C29.02 49.69, 53.07 15.5, 66.88 0.71 M0.19 78.86 C16.27 59.78, 34.96 40.02, 68.1 -0.68 M-0.69 85.48 C16.14 64.11, 35.66 44.88, 75.23 -0.34 M0.73 84.08 C29.6 50.95, 57.92 17.33, 73.74 -0.28 M-0.2 92.68 C22.69 67.26, 43.6 40.89, 78.7 -0.62 M-0.28 91.12 C25.64 61.35, 53.38 31.82, 80.29 -0.58 M0.07 97.24 C31.25 61.99, 61.77 23.65, 84.91 -0.52 M0.12 96.9 C28.2 66.27, 57.39 31.97, 84.9 0.69 M0.89 104.93 C27.29 69.29, 57.42 38.92, 90.22 0.7 M-0.63 103.87 C26.68 74.2, 53.57 43.68, 90.24 -0.83 M0.94 109.41 C35.81 68.27, 75.75 25.89, 97.14 1.68 M0.85 109.32 C36.18 67.05, 73.48 25.32, 96.17 -0.03 M1.58 113.76 C39.32 72.25, 75.97 25.8, 99.31 1.82 M0.88 116.28 C31.17 81.1, 60.53 45.66, 99.85 0.75 M-0.24 121.29 C39.39 73.59, 81.86 25.63, 106.89 -1.96 M0.85 122.57 C38.44 76.6, 80.2 29.95, 105.49 -0.2 M2.14 127.6 C43.99 82.27, 84.28 32.79, 111.55 -0.33 M1.56 126.14 C39.37 82.49, 79.5 35.46, 110.39 -0.83 M4.64 128.4 C46.87 82.28, 89.64 34.23, 115.2 1.92 M5.98 127.18 C42.44 83.87, 80.07 40.26, 116.05 -0.5 M10.07 125.85 C46.96 86.6, 78.79 47.89, 122.25 0.99 M11.11 127.76 C56.12 79.02, 98.48 28.55, 121.52 -0.66 M18.19 128.34 C53.14 86.55, 90.48 42.7, 125.79 -0.85 M17.27 127.87 C59.71 76.46, 103.53 27.3, 127.9 -0.48 M22.56 128.54 C50.84 96.04, 78.86 62.63, 134.42 0.27 M23.13 126.74 C60.35 80.68, 101.01 36.75, 132.3 -1.02 M27.47 126.27 C61.94 87.66, 99.96 42.23, 139.13 -1.36 M27.88 127.99 C51.1 96.81, 76.59 67.52, 137.02 0.89 M33.38 125.22 C57.62 100.54, 81.8 70.79, 144.8 1.79 M32.92 127.67 C74.44 79.6, 115.59 32.75, 144.18 -0.29 M37.84 127.85 C63.8 94.77, 92.62 63.44, 149.08 -0.69 M37.95 127.43 C63.12 98.08, 90.51 67.32, 148.91 -0.71 M44.98 128.16 C74.05 92.81, 102.94 58.93, 153.86 1.63 M42.69 126.53 C85.7 79.42, 127.06 30.04, 153.99 -0.02 M50.39 126.52 C73.98 97.36, 96.62 71.59, 160.2 0.87 M49 126.99 C90.07 80.28, 132.23 30.96, 158.99 0.73 M54.58 126.46 C97.32 80.48, 138.36 31.28, 163.77 1.63 M54.54 125.65 C79.82 95.11, 105.06 66.07, 164.95 0.13 M59.92 125.51 C80.73 100.87, 106.7 73.81, 169.13 2.56 M58.94 127.3 C92.71 89.16, 125.83 48.97, 168.89 1.34 M64.07 127.98 C102.97 82.19, 143.57 36.95, 170.52 6.2 M65.44 126.72 C93.15 95.31, 121.85 63.03, 169.8 6.12 M68.94 127.81 C93.71 96.38, 119.64 69.17, 170.67 14.21 M69.08 127.85 C98.21 95.3, 123.62 63.55, 169.63 13.42 M74.09 125.35 C93.33 103.58, 114.3 79.56, 170.39 18.01 M76.29 125.79 C104.79 92.91, 135.67 57.69, 168.18 20.25 M81.7 126.21 C110.96 88.96, 143.02 55.99, 167.41 26.55 M81.11 125.99 C97.21 106.75, 114.89 85.01, 168.11 24.76 M85.99 126.01 C111.52 96.86, 137.32 68.88, 168.6 29.44 M86.83 126.27 C109.24 100.4, 132.48 72.79, 168.4 31.62 M90.16 125.27 C106.94 105.09, 126.5 84.53, 170.77 38.42 M90.13 125.95 C108.17 108.64, 124.13 89.34, 169.32 36.8 M95.18 126.91 C123.69 94.32, 152.59 62.63, 169.57 42.23 M96.09 126.68 C120.3 97.57, 146.73 68.99, 168.61 42.74 M99.99 127.34 C128.94 98.38, 154.75 68.17, 168.28 48.17 M101.61 127.79 C121.76 103.4, 140.88 82.86, 168.46 49.12 M107.75 125.53 C122.85 109.26, 140.47 88.1, 170.05 57.13 M105.9 126.64 C120.01 112.78, 132.02 97.3, 168.97 56.25 M112.59 126.55 C122.81 113.51, 136.46 98.46, 168.11 60.7 M112.42 126.44 C124.16 113.34, 138.08 97.64, 168.58 61.39 M118.57 126.4 C130.08 113.49, 144.15 98.66, 168.54 68.67 M118.07 126.39 C129.29 114.05, 139.49 101.78, 170.06 66.61 M123.08 126.8 C135.55 111.34, 150.37 98.21, 169.21 73.92 M123.82 126.71 C137.06 111.66, 150.61 95.53, 169.68 74.88 M127.84 128.06 C138.24 114.31, 150.84 99.27, 170.59 79.92 M127.91 126.78 C136.39 116, 147.05 105.63, 169.19 79.91 M134.29 127.79 C143.14 117.58, 152.79 106.99, 169.91 85.81 M134.46 126.23 C146.86 112.27, 159.61 97.47, 168.28 86.5 M138.52 125.84 C147.95 117.58, 156.8 108.1, 169.44 93.47 M138.65 127.01 C151.29 113.5, 161.8 100.18, 168.02 91.86 M142.76 126.99 C151.01 122.38, 154.15 112.59, 169.23 97.08 M143.37 126.51 C152.75 117.6, 160.66 106.02, 169.82 98.49 M150.27 125.86 C158.42 120.28, 162.39 111.66, 168.07 105.95 M148.39 127.65 C155.79 120.7, 161.79 111.65, 169.64 105.26 M156.78 125.65 C158.25 124.36, 162.26 119.69, 168.28 110.02 M155 125.94 C158.52 124.49, 159.51 120.33, 168.94 110.23 M160.98 127.02 C162.8 123.38, 165.01 122.23, 168.22 115.45 M159.36 127.45 C163.2 122.95, 165.96 120.27, 168.44 116.16 M165.71 126.69 C167.17 124.81, 168.01 124.04, 168.3 123.01 M165.67 126.67 C166.47 125.33, 167.95 123.94, 168.88 122.7 M0.25 126.22 C0.25 126.22, 0.25 126.22, 0.25 126.22 M0.25 126.22 C0.25 126.22, 0.25 126.22, 0.25 126.22 M6.29 125.28 C3.72 123.45, 1.43 121.87, 0.07 120.66 M6.26 125.58 C4 124.2, 1.57 122.46, -0.53 120.77 M12.44 127.04 C9.97 124.25, 4.87 118.44, -0.06 117.11 M12.31 126.17 C8.61 123.78, 7.14 121.43, -0.42 115.63 M19.74 124.72 C14.91 122.23, 8.36 119.03, 0.79 107.95 M17.47 125.76 C13.03 120.36, 5.83 115.33, -0.98 110.61 M22.89 126.88 C15.93 120.41, 12.52 113.13, -1.66 103.41 M23.42 126.2 C15.84 117.74, 5.48 109.7, 0.27 104.93 M29.18 127.92 C22.4 119.76, 11.19 111, -0.22 97.92 M31.22 126.19 C21 117.83, 11.52 109.33, -0.44 99.18 M37.46 126.99 C24.22 116.75, 15.58 107.4, 0.6 94.37 M36.45 124.85 C25.09 115.09, 12.14 105.89, 0.49 93.85 M42.54 126.91 C34.15 116.4, 23.42 109.03, -1.29 90.11 M42.94 126.84 C28.99 114.59, 14.55 101.2, 0.27 88.2 M50.15 124.42 C34.3 114.78, 19.89 100.97, -1.37 82.94 M47.85 125.84 C30.39 110.55, 14.24 96.41, -0.84 84.61 M53.16 124.27 C43.66 114.8, 32.76 106.28, 1.65 76.72 M55.15 126.89 C38.97 111.4, 23.79 98.68, -1.19 77.42 M62.43 125.4 C47.6 114.98, 32.13 102.08, -1.91 71.45 M60.73 125.91 C39.92 106.71, 18.77 88.92, -0.25 73.28 M67.34 127.74 C52.24 114.11, 37.35 100.35, 1.39 68.75 M66.03 126.73 C53.7 113.67, 39.52 102.14, -0.27 67.98 M74.19 124.98 C46.41 100.32, 19.38 77.22, 0.39 62.03 M72.8 125.19 C46.12 103.69, 19.36 79.24, -0.85 62.8 M79.11 124.81 C54.06 104.94, 27.69 82.49, 1.43 57.96 M79.13 125.61 C53.64 103.24, 29 82.79, -0.53 57.36 M86.31 124.95 C56.36 102.79, 28.63 74.82, 0.63 50.6 M85.96 126.15 C63.39 107.01, 40.65 88.3, 0.61 51.95 M92.95 125.42 C60.8 98.19, 25.2 69.49, -1.26 47.56 M91.15 125.29 C62.38 101.83, 34.6 75.93, 0.1 47.06 M95.64 125.25 C64.89 99.01, 35.55 70.27, 1.65 40.84 M98.21 125.93 C72.37 103.84, 45.39 79.98, 0.77 40.4 M102.83 125.33 C78.3 103.15, 52.7 82.02, -1.23 35.56 M103.92 126.41 C71.94 100.77, 43.09 72.78, -0.65 36.99 M109.76 126.58 C75.77 95.63, 38.57 67.19, 0.01 30.22 M109.47 126.05 C66.99 88.77, 23.6 52.37, 0.68 29.65 M114.66 124.03 C75.51 93.84, 39.23 60.09, 1.93 24.74 M115.92 125.46 C89.73 102.27, 63.02 79.65, 0.07 26.35 M121.7 125.07 C81.56 94.31, 46.49 60.2, -0.03 20.01 M121.29 126.05 C93.26 100.33, 63.19 74.54, 0.76 20.06 M129.36 124.17 C98.92 99.73, 67.36 75.3, -1.4 13.98 M128.27 125.11 C93.22 93.92, 56.02 63.21, 0.28 14.08 M132.95 127.69 C98.61 97.46, 65.45 67.13, -0.48 9.22 M134.85 125.86 C106.33 100.35, 76.88 73.95, -0.15 9.88 M141.52 126.14 C91.76 86.55, 45.89 42.98, -0.13 4.96 M140.47 125.92 C98.54 88.55, 57.97 53.22, 0.85 4.46 M148.01 126.15 C93.29 81.74, 43.75 38.49, 1.13 -2.67 M146.47 126.72 C102.89 90.58, 59.29 52.81, 0.9 -1.16 M154.24 126.78 C103.64 84.93, 53.42 40.96, 6.36 -1.96 M152.19 125.93 C109.81 90.07, 67.24 52.52, 7.36 0.03 M157.3 124.27 C115.02 88.94, 72.83 51.22, 10.79 -1.87 M157.64 125.59 C125.31 96.5, 92.29 69.84, 13.09 -0.93 M166.06 126.77 C115.56 84.3, 69.77 40.41, 19.1 1.15 M165.2 125.1 C135.85 99.19, 104.21 73.26, 19.99 -0.51 M170.49 123.35 C128 90.13, 91.87 55.42, 24.33 -1.86 M169.21 123.48 C113.54 76.39, 60.71 29.51, 25.09 -1.45 M169.96 117.95 C132.62 87.14, 94.21 52.98, 30.06 -0.3 M169.4 119.64 C122.48 80.08, 74.16 39.22, 31 -1.39 M169.15 115.56 C120.48 70.97, 72.38 28.04, 39.36 0.19 M169.11 113.84 C137.06 85.03, 103.94 55.9, 38.03 -0.4 M170.46 110.47 C127.07 73.35, 86.83 39.03, 41.21 -1.49 M168.86 108.16 C134.09 79.81, 97.4 49.31, 42.86 -0.89 M168.94 102.97 C127.26 69.55, 89.02 31.37, 50.96 0.9 M169.55 104.58 C143.01 82.12, 117.74 58.3, 50.19 -0.57 M169.27 99.59 C130.33 63.81, 90.73 32.12, 53.24 -0.85 M168.59 97.43 C124.19 60.58, 78.57 19.94, 55.9 -0.94 M167.93 93.17 C139.7 68.5, 112.06 43.32, 62.19 0.65 M170.33 92.75 C134.44 62.49, 98.88 30.98, 62.47 -0.93 M169.34 86.4 C133.23 55.94, 96.6 23.77, 68.33 -1.36 M169.44 88.14 C133.15 56.45, 96.78 24.03, 68.12 -1.43 M168.15 83.9 C142.73 60.13, 118.51 38.57, 75.06 -1.06 M169.35 82.1 C138.66 57.05, 108.7 30.56, 74.45 -0.21 M169.31 75.78 C142.91 54.79, 115.4 29.64, 81.09 0.8 M169.64 75.86 C148.81 60.22, 130.24 44.53, 79.14 0.12 M170.37 73.69 C138.63 46.23, 106.59 17.78, 85.32 -2.94 M168.44 72.74 C150.25 53.11, 129.52 36.2, 86.06 -1.33 M169.55 66.4 C145.45 46.65, 124.68 26.6, 93.12 -1.77 M169.83 65.99 C146.35 45.9, 123.26 25.9, 91.72 -0.46 M168.05 59.83 C144.73 42.38, 123.54 19.56, 97.18 0.72 M170.3 62.15 C143.09 37.9, 114.41 15.29, 99.4 0.35 M170.13 56.68 C148.67 39.4, 129.29 22.97, 104 -0.38 M168.05 54.83 C147.7 37.31, 126.1 19.28, 103.78 -1.68 M169.38 52.4 C150.4 32.13, 130.18 16.21, 110.31 -0.54 M169.52 50.15 C148.4 32.16, 125.99 13.05, 110.68 -0.68 M168.86 46.85 C147.59 27.96, 127.08 9.85, 118.01 0.46 M168.69 44.5 C152.11 30.62, 137.2 17.77, 116.11 -0.64 M171.29 40.27 C154.32 28.46, 142.89 13.95, 122.36 0.57 M169.59 39.94 C156.96 29.36, 145.91 18.84, 121.78 -1.06 M167.26 32.91 C154.68 20.42, 138.84 10.39, 130.91 -2.32 M169.58 34 C160.75 26.4, 151.43 18.28, 128.16 0.55 M169.4 29.07 C161.17 23.54, 153.97 19.47, 135.94 0.44 M169.88 29.06 C159.8 22.65, 151.61 14.55, 134.2 -0.26 M168.57 24.65 C159.85 14, 147.92 5.55, 140.91 1.01 M168.9 24.18 C158.06 15.52, 149.43 6.67, 139.99 -0.83 M168.06 19.24 C162.36 10.57, 154.75 7.49, 145.39 -0.72 M168.67 18.43 C161.33 10.59, 152.69 3.46, 146.86 -0.88 M167.75 11.64 C162.64 7.81, 158.4 6.48, 151.22 -1.06 M168.24 12.76 C162.66 8.13, 157.33 3.28, 153.83 -1.17 M169.94 8.01 C167.08 6.65, 163.49 4.54, 159.47 -0.34 M169.79 7.58 C167.1 6, 165.69 5.01, 159.64 -0.81 M168.97 2.13 C167.64 0.81, 166.12 -0.08, 165.02 -1.11 M169 2.66 C168.1 1.53, 166.91 0.75, 164.79 -0.67" stroke="#868e96" stroke-width="0.5" fill="none"></path><path d="M-1.06 -1.93 C37.97 -1.07, 79.14 0.48, 168.97 1.79 M-0.65 -0.37 C49.17 1.95, 97.96 1.56, 167.38 -0.24 M167.64 0.88 C167.54 47.88, 165.63 98.32, 169.37 124.71 M168.93 -0.94 C167.34 42.46, 167.85 84.27, 167.38 125.38 M169.56 124.61 C127.52 122.88, 88.79 125.86, 0.35 126.36 M168.32 125.32 C118.96 127.13, 69.87 127.3, 0.01 125.54 M-0.54 127.72 C-0.82 88.97, -0.78 51.54, 1.81 0.26 M-0.41 126.51 C0.32 82.12, 0.11 40.44, -0.27 -0.87" stroke="#000000" stroke-width="1" fill="none"></path></g><g transform="translate(918 72) rotate(0 31.5 17.5)"><text x="31.5" y="25" font-family="Virgil, Segoe UI Emoji" font-size="28px" fill="#000000" text-anchor="middle" style="white-space: pre;" direction="ltr">User</text></g><g transform="translate(872.5 119) rotate(0 26 10)"><text x="26" y="14" font-family="Virgil, Segoe UI Emoji" font-size="16px" fill="#000000" text-anchor="middle" style="white-space: pre;" direction="ltr">- name</text></g><g transform="translate(873.5 154) rotate(0 44 10)"><text x="44" y="14" font-family="Virgil, Segoe UI Emoji" font-size="16px" fill="#000000" text-anchor="middle" style="white-space: pre;" direction="ltr">- Password</text></g><g stroke-linecap="round" transform="translate(865.5 211.5) rotate(0 84 63)"><path d="M0 0 C0 0, 0 0, 0 0 M0 0 C0 0, 0 0, 0 0 M-0.5 6.81 C1.54 4.14, 4.28 2.5, 4.68 0.69 M0.12 6.38 C0.58 5.19, 1.99 3.54, 5.3 0.46 M-0.86 12.09 C5.18 8.35, 8.87 3.71, 10.41 -0.06 M0.82 12.59 C3.05 8.07, 7.71 4.39, 10.17 0.18 M1.63 19.06 C5.06 11.94, 11.68 5.62, 17.28 2.12 M-0.41 17.74 C6.2 12.89, 10.78 5.51, 15.57 0.11 M0.84 24.67 C7.95 16.54, 16.13 8.25, 22.81 -0.88 M0.8 24.2 C5.09 17.46, 12.03 11.4, 20.73 -0.02 M-0.38 32.12 C4.98 24.06, 13.09 14.26, 25.67 -1.22 M0.58 30.36 C10.35 20.38, 18.35 8.4, 25.49 0.73 M-1.94 36.34 C7.35 29.49, 17.2 17.79, 31.54 -0.4 M-0.75 36.03 C5.67 29.01, 14.24 19.08, 31.65 0.69 M0.15 42.4 C7.1 34.85, 15.94 23.85, 38.71 -1.06 M0.62 43.27 C14.47 25.94, 29.29 10.84, 37.74 1.14 M-1.45 50.01 C17.04 29.51, 32.41 11.47, 44.01 -0.77 M0.14 48.06 C15.13 30.34, 31.14 13.41, 43.33 0.62 M0.07 56.41 C14.95 38.16, 26.18 21.93, 48.51 0.1 M0.54 55.41 C17.13 33.67, 35.77 13.13, 47.89 0.42 M-0.85 60.56 C13.33 47.6, 28.73 28.68, 51.47 0.61 M0.71 60.81 C11.45 48.62, 21.93 37, 53.13 -1.09 M-0.65 66.11 C15.86 51.29, 28.34 34.59, 59.98 -0.55 M-0.63 67.37 C18.27 47.31, 34.44 28.34, 57.85 1.02 M2.13 73.8 C15.22 56.71, 25.39 41.22, 62.96 1.08 M-0.8 73.44 C18.42 51.37, 35.42 30.13, 64.28 0.58 M1.73 79.95 C24.78 52.62, 50.64 21.8, 68.78 -0.06 M-0.04 79.35 C14.59 61.56, 31.21 43.42, 68.92 -0.2 M0.54 85.3 C22.48 58.31, 45.4 30.92, 75.28 -1.35 M1.19 85.48 C23.23 59.23, 45.5 32.73, 74.88 -0.43 M0.71 93.34 C29.39 57.67, 58.81 23.74, 79.36 0.19 M0.05 90.72 C31.19 57.93, 58.88 22.85, 78.73 1 M-0.46 99.09 C27.21 68.54, 51.67 38.31, 87.04 -1.91 M-0.01 98.61 C32.38 60.22, 66.13 21.62, 84.86 -0.31 M0.29 103.65 C24.16 75.59, 51.97 41.94, 90.98 0.59 M-0.09 103.98 C27.1 74.36, 52.83 43.09, 90.29 -0.75 M1.07 110.63 C32.5 73.83, 62.99 37.4, 96.61 0.87 M0.23 110.65 C37.4 66.1, 74.52 24.29, 95.04 -0.36 M0.21 117 C30.65 81.57, 61.48 48.71, 99.64 1.21 M0.65 114.53 C31.8 79.11, 60.95 43.84, 100.96 0.59 M1.86 121.4 C21.94 93.52, 46.88 66.9, 108.15 -0.82 M0.92 121.07 C22.26 96.58, 45.89 70.63, 106.08 0.01 M2.67 125.45 C41.89 80.33, 80.87 36.97, 112.14 -0.15 M1.91 126.89 C23.16 99.74, 48.77 71.38, 111.46 -0.58 M7.99 127.02 C51.87 76.9, 93 25.3, 116.95 -1.31 M7.01 126.18 C41.44 86.95, 75.16 46.48, 116.85 1.05 M10.15 127.95 C53.99 76.79, 93.99 30.43, 120.07 -1.96 M10.71 126.67 C36.32 96.62, 60.87 69.37, 122.87 -0.45 M15.1 127.16 C55.35 80.97, 92.33 40.42, 126.03 1.53 M16.57 127.97 C56.16 82.01, 96.24 34.42, 126.06 0.63 M23.92 128.1 C59.61 85.18, 97.86 40, 133.78 -0.99 M22.92 127.25 C47.75 97.29, 73.42 68.7, 131.63 -0.82 M26.34 126.97 C66.58 83.36, 105.32 39.49, 136.26 0.79 M27.76 126.62 C71.88 76.07, 114.89 27.54, 137.29 -0.24 M34.86 126.86 C65.01 86.2, 102.19 46.19, 144.43 1.73 M33.08 127.58 C66.46 88.6, 99.48 50.48, 142.55 -0.1 M38.23 126.02 C82.42 77.88, 122.61 27.8, 146.9 -0.46 M37.7 126.4 C65.49 93.33, 94.29 61.75, 148.64 0.6 M43.61 127.93 C66.47 96.97, 91.61 71.72, 153.92 -1.13 M43.62 126.52 C66.4 99.34, 89.24 72.73, 153.78 -0.33 M50.06 125.61 C72.61 98.43, 95.1 70.85, 157.02 1.57 M48.86 127.98 C87.67 82.36, 125.29 38.43, 159.07 0.2 M54.64 127.72 C93.02 82.86, 131.54 37.96, 164.98 -1.18 M53.81 125.8 C89.85 87.51, 122.7 47.47, 163.83 -0.12 M57.92 126.78 C90.02 89.18, 123.26 54.64, 166.82 2.14 M60.07 127.41 C92.98 87.27, 127.06 46.73, 168.76 0.26 M66.14 125.35 C105.31 78.94, 145.55 35.17, 169.18 6.5 M64.79 127.04 C90.88 97.2, 116.33 68.11, 168.69 7.08 M68.67 128.25 C92.86 103.95, 112.48 76.99, 167.73 11.04 M69.51 127.14 C102.47 88.39, 134.26 50.52, 168.21 13.16 M76.13 124.69 C109.28 85.99, 141.53 50.25, 169.44 18.98 M74.54 126.76 C98.92 99.19, 122.82 71.88, 169.24 19.64 M81.95 128.49 C109.28 95.11, 138.25 58.5, 168.01 26.89 M79.75 127 C98.61 104.43, 118.64 83.01, 168.78 25.32 M84.39 128.29 C114.72 93.54, 143.53 61.71, 168.72 33.03 M86.93 127.37 C108.18 101.23, 129.41 78.18, 168.99 32.34 M92.18 127.68 C116.9 100.29, 141.15 70.94, 169.85 36.35 M90.68 127.23 C117.29 97.66, 142.24 69.18, 168.9 37.33 M97.84 128.19 C120.94 98.58, 146.35 67.82, 168.2 44.66 M96.02 126.92 C123.2 97.07, 149.4 66.36, 169.24 42.84 M102.57 125.71 C126.76 96.64, 151.37 70.64, 168.55 49.56 M102.58 127.44 C118.93 107.98, 135.59 89.6, 168.15 50.46 M107.11 128.9 C119.76 113.74, 133.41 95.98, 168.48 54.88 M107.68 127.1 C130.54 99.69, 154.17 70.64, 169.29 56.48 M111.11 128.19 C127.28 108.47, 140.72 93.42, 169.19 63.11 M113.07 127.64 C129.48 105.7, 148.89 86.17, 168.98 62.59 M116.7 125.9 C134.66 107.9, 149.82 90.53, 170.96 68.37 M116.7 126.72 C132.84 109.09, 148.31 90.31, 168.84 67.97 M124.57 128.46 C136.69 115.8, 145.12 99.88, 168.65 74.57 M122.14 127.23 C137.4 109.72, 152.91 93.46, 169.7 73.75 M129.51 128.61 C140.07 114.61, 150.79 100.57, 167.16 80.34 M128.37 127.77 C137.52 117.89, 145.42 106.46, 168.24 81.15 M132.49 125.57 C147.71 109.62, 159.71 95.54, 168.23 85.48 M133.14 126.01 C146.01 112.44, 157.5 97.97, 168.15 86.12 M140.22 127.22 C147.16 118.78, 152.56 109.24, 167.34 91.41 M138.83 127.11 C148.75 114.36, 161.2 102.15, 168.22 93.02 M145.2 126.29 C152.07 115.58, 163.94 104.77, 171.04 96.09 M143.77 127.14 C152.67 116.86, 162.36 106.34, 170.04 97.76 M149.31 126.59 C157.54 118.97, 162.49 109.58, 170.59 106.21 M150.1 127.48 C156 119.93, 161.26 112.75, 168.86 105.22 M155.83 127.12 C160.38 119.99, 163.75 114.5, 167.3 112.13 M155.1 126.21 C158.38 123.14, 162.37 118.7, 169.26 110.38 M160.68 127.94 C162.83 123.08, 163.81 120.66, 169.31 116.36 M159.29 126.68 C162.66 124.89, 164.13 122.3, 169.21 116.15 M165.69 127.05 C166.37 125.29, 168.34 123.43, 168.33 123.1 M165.27 126.53 C166.62 125.54, 167.86 123.9, 168.98 122.99 M0.25 126.22 C0.25 126.22, 0.25 126.22, 0.25 126.22 M0.25 126.22 C0.25 126.22, 0.25 126.22, 0.25 126.22 M6.3 126.23 C3.68 123.7, 2 122.66, 0.23 121.1 M6.21 125.73 C4.29 124.17, 1.73 122.8, 0.09 120.64 M11.62 127.62 C8.05 124.7, 5.96 119.52, -0.99 114.65 M12.8 126.66 C9.81 123.87, 6.18 120.94, 0.52 116.31 M17.15 125.99 C11.81 117.99, 3.91 113.71, 0.9 111.56 M18.49 124.7 C13.66 121.27, 8.14 117.72, -0.94 110.23 M25.81 127.52 C17.18 121.51, 12.77 112.6, 1.05 104.46 M25.13 125.54 C15.91 120.09, 9.45 113.45, -0.55 104.97 M30.31 125.06 C22.78 115.94, 11.59 111.52, 0.45 101 M31.61 126.58 C22.89 120.52, 15.62 112.81, 0.48 98.69 M37.62 126.99 C29.55 119.42, 21.59 112.34, 0.85 93.34 M37.08 126.44 C22.56 114.88, 8.37 102.41, 0.12 95.05 M41.9 125.79 C27.85 114.8, 15.11 103.93, -0.79 88.77 M43.4 126.46 C28 113.84, 12.69 100.75, 0.58 88.5 M48.04 125.6 C36.61 117.04, 25.15 106.1, 0.54 85.22 M48.96 126.58 C35.3 114.39, 21.11 101.3, 0.51 82.96 M56.48 125.66 C37.38 112.23, 21.92 94.44, 0.73 78.15 M54.82 125.91 C36.51 107.54, 16.42 92.03, 0.05 78.97 M62.76 127.92 C40.51 107.91, 16.22 88.57, -0.66 72.01 M60.53 126.61 C48.37 116.36, 35.55 104.95, 0.91 72.33 M66.62 125.19 C43.32 107.35, 21.84 87.11, -1.62 67.15 M66.46 125.23 C40.74 102.99, 15.89 81.32, -0.52 67.28 M75.01 127.28 C56.03 109.53, 40.66 97.56, -0.78 63.31 M73.18 125.09 C44.85 102.5, 16.03 76.67, 0.93 63.15 M79.68 126.61 C51.98 101.08, 22.31 76.98, 1.28 58.5 M78.25 125.11 C62.53 111.22, 45.78 97.7, 0.29 57.52 M84.03 127.66 C59.29 104.09, 33.11 83.17, -1.05 52.47 M85.4 125.45 C58.26 102.89, 31.32 79.91, 0.56 50.84 M92.58 124.54 C64.07 104.11, 38.35 78.74, 1.08 46.29 M91.26 126.31 C67.44 103.61, 42.15 81.74, 0.54 46.3 M98.11 127.15 C56.61 91.33, 20.71 56.79, 0.08 42.53 M96.8 126.34 C64.73 96.93, 33.09 70.59, -0.85 41.17 M102.71 125.34 C83.7 108.67, 57.51 85.53, -1.02 35.38 M103.63 125.98 C65.52 92.77, 29.13 59.55, 0.86 37.18 M109.31 124.52 C77.9 97.38, 43.68 65.76, 0.95 32.26 M109.84 125.31 C69.91 90.13, 31.13 56.69, 0.41 31.34 M114.54 125.07 C81.4 97.93, 51.11 70.61, 0.19 27.29 M116.13 126.66 C80.64 93.76, 45.17 64.51, 0.01 25.57 M120.24 125.95 C93.59 99.48, 63.14 76.52, -1.34 18.16 M121.6 126.46 C92.34 101.1, 62.98 74.96, -0.61 20.9 M126.56 124.85 C98.85 95.86, 65.63 72.13, 0.97 15.63 M128.14 126.59 C98.32 100, 66.41 71.83, 0.88 15.1 M135.01 124.34 C86.93 84.72, 38.56 41.03, -0.89 8.43 M133.76 126.8 C83.31 80.54, 29.51 35.01, -0.47 8.84 M138.03 125.49 C93.23 85.55, 46.39 44, -0.65 4.72 M139.4 125.44 C85.68 79.93, 33.93 35.83, 0.19 3.32 M145.79 125.29 C111.22 95.59, 73.19 64.64, -0.27 -2.34 M146.1 125.21 C99.46 88.18, 56.14 48.92, 0.36 -0.86 M151.76 126.22 C97.9 78.57, 43.62 32.3, 7.94 1.49 M151.76 125.89 C114.65 95.13, 78.35 63.67, 6.31 0.54 M159.76 126.46 C126.18 96.41, 93.25 69.45, 12.53 0.67 M158.54 126.79 C117.32 90.31, 74.58 53.57, 13.59 -0.25 M165.07 127.99 C127.91 91.84, 90.62 61.1, 20.83 0.4 M165.17 126.07 C128.11 97.29, 92.97 66.55, 19.2 -0.23 M168.4 122.92 C132.41 90.7, 95.8 59.06, 26.44 -1 M169.31 125.25 C122.39 83.02, 77.79 44.51, 24.4 -0.05 M168.78 120.89 C126.82 84.07, 90.54 51.14, 32.11 -2.68 M169.64 119.89 C133.6 89.76, 98.52 58.75, 31.86 -0.38 M168.14 112.56 C136.79 85.84, 102.34 55.14, 39.23 0.37 M168.75 115.25 C120.92 72.57, 73 30.75, 38.42 -1.08 M168.3 107.25 C137.83 83.12, 110.15 52.75, 42.93 -0.56 M169.38 109.19 C137.16 81.88, 106.57 54.68, 42.48 -0.82 M170.58 103.05 C131.1 68.46, 89.11 35.27, 49.18 0.29 M170.38 104.45 C136.01 74.5, 101.52 44.01, 50.35 0.27 M169.33 96.43 C137.98 71.1, 103.78 41.2, 54.25 -1.31 M169.44 97.51 C132.66 67.54, 94.8 34.93, 56.07 -1.55 M170.79 91.61 C130.92 61.24, 88.37 26.5, 61.64 -0.08 M170.3 92.18 C131.36 61.12, 94.1 28.53, 61.52 -1.03 M169.84 85.58 C144.44 64.2, 118.16 42.7, 69.54 -1.67 M168.72 87.83 C149.53 70.01, 127.45 51.95, 68.27 -0.05 M168.87 81.48 C142.39 60.78, 120.19 38.26, 71.96 -2.49 M169.7 83 C144.38 60.87, 118.78 39.27, 73.89 -0.3 M170.55 77.56 C151.76 62.89, 131.8 43.38, 81.78 0.42 M169.47 77.56 C136.63 48.53, 105.06 20.43, 79.33 -0.87 M168.68 72.63 C147.41 54.82, 126.69 35.71, 84.28 -0.99 M168.65 72.37 C135.5 43.7, 103.16 16.39, 85.74 -1.45 M168.98 66.96 C152.43 48.47, 131.91 31.49, 92.02 -0.33 M168.3 65.45 C146.22 47.23, 121.56 26.17, 91.59 -0.68 M167.9 59.76 C150.87 48.82, 133.86 31.67, 98.3 0.77 M169.06 61.63 C146.38 40.09, 123.63 20.34, 97.49 -1.33 M169.44 54.09 C151.61 39.08, 132.93 26.12, 104.32 -1.13 M169.19 54.68 C150.06 39.68, 131.03 23.51, 103.53 0.06 M167.96 50.29 C157.23 41.17, 147.68 28.19, 112.19 0.85 M169.71 51.01 C153.31 36.39, 135.36 21.7, 109.66 -1.41 M169 46.95 C152.7 31.56, 137.51 14.25, 116.52 -0.47 M168.46 45.8 C148.17 26.22, 126.87 8.87, 115.47 -1.21 M168.08 38.33 C157.68 30.61, 151.36 24.27, 121.21 1.04 M169.23 40.65 C153.44 26.87, 136.98 10.47, 122.36 -0.75 M167.53 35.29 C154.96 24.76, 143.64 14.24, 127.02 0.52 M169.81 33.76 C159.28 24.43, 148.91 15.62, 129.34 0.49 M167.27 30.74 C160.89 20.96, 152.97 16.76, 132.63 -1.83 M169.12 29.56 C161.36 21.48, 153.69 16, 135.35 -1.72 M169.66 24.58 C158.67 14.32, 149.18 6.67, 141.71 -2.52 M169.28 22.89 C159.72 16.32, 150.52 6.07, 140.67 0.07 M170.31 17.1 C162.94 14.24, 153.46 4.4, 148.48 -1.21 M168.73 18.64 C162.36 13.49, 157 7.66, 145.71 -0.26 M170.83 13.97 C163.93 9.82, 158.09 5.36, 152.53 0.73 M168.28 13.92 C164.71 9.47, 161.62 5.9, 152.13 -0.7 M169.56 7.82 C166.23 3.33, 161.48 2.24, 160.02 -1.57 M168.6 7.83 C166.92 5.67, 163.36 3.3, 159.56 -0.35 M168.42 2.43 C167.79 1.98, 166.64 0.64, 164.89 -0.97 M168.75 2.57 C168.16 1.66, 166.84 1.06, 165.14 -0.84" stroke="#868e96" stroke-width="0.5" fill="none"></path><path d="M1.45 0.48 C62.33 -0.58, 124.93 2.49, 167.83 -0.08 M-0.32 -0.88 C61.11 2.51, 119.56 1.03, 167.51 0.56 M169.74 0.58 C169.3 41.15, 169.46 79.72, 168.93 125.62 M167.16 0.29 C168.66 47.6, 167.04 95.98, 168.77 125.71 M169.94 127.11 C114.51 127.05, 62.91 124.11, 1.87 127.41 M168.04 125.08 C108.39 124.27, 48.75 124.03, 0.3 125.05 M1.22 125.8 C0.84 87.19, 2.82 46.64, -0.42 -0.45 M0.19 125.72 C-0.35 89.72, -1.43 50.86, -0.12 0.51" stroke="#000000" stroke-width="1" fill="none"></path></g><g transform="translate(921 215) rotate(0 28.5 17.5)"><text x="28.5" y="25" font-family="Virgil, Segoe UI Emoji" font-size="28px" fill="#000000" text-anchor="middle" style="white-space: pre;" direction="ltr">Role</text></g><g transform="translate(872.5 262) rotate(0 26 10)"><text x="26" y="14" font-family="Virgil, Segoe UI Emoji" font-size="16px" fill="#000000" text-anchor="middle" style="white-space: pre;" direction="ltr">- name</text></g><g stroke-linecap="round" transform="translate(253 114) rotate(0 98 85)"><path d="M0 0 C0 0, 0 0, 0 0 M0 0 C0 0, 0 0, 0 0 M-1 5.73 C1.42 3.97, 1.76 3.2, 5.55 0.24 M0.12 6.39 C0.97 4.39, 2.87 2.47, 4.91 0.11 M0.98 13.51 C3.25 7.8, 6.67 2.36, 10.03 -0.02 M0.84 11.81 C4.63 7.06, 7.95 3.79, 11.43 0.29 M-0.39 17.61 C7.24 11.38, 13.88 5.68, 13.73 1.21 M-0.44 18.94 C6.37 12.55, 10.42 5.35, 16.54 0.6 M-1.67 24.09 C6.22 15.05, 11.57 10.68, 21.42 -0.17 M-0.61 24.23 C4.51 18.78, 9.31 12.68, 21.39 0.06 M-1.46 31.35 C5.52 23.26, 12.4 14.22, 28.08 1.16 M-0.57 30.95 C7.53 22.43, 14.97 13.23, 26.6 1.24 M-1.85 36.84 C10.15 26.39, 18.71 14.21, 31.96 -1.54 M-0.45 36.21 C12.84 22.8, 24.52 7.98, 31.78 0.52 M0.1 44.52 C12.18 28.38, 27.4 12.73, 37.36 1.81 M-0.08 42.34 C10.27 30.04, 21.26 17.48, 36.95 0.34 M-1.5 49.87 C8.68 38.79, 16.21 27.32, 42.04 0.87 M-0.51 49.18 C12.42 33.75, 27.42 17.9, 43.11 0.24 M1.44 55.5 C18.34 36.59, 33.23 16.67, 48.2 1.78 M0 53.93 C15.55 37.13, 29.88 20.45, 47.47 0.96 M1.96 59.94 C16.75 42.6, 31.18 25.37, 53.88 -2.15 M-0.88 61.26 C21.5 36.93, 41.59 14.91, 54.07 -0.43 M0.78 69.21 C11.2 52.14, 23.22 40.15, 59.95 -1.5 M0.42 67.14 C13.73 51.44, 26.82 35.7, 58.94 -0.49 M0.53 73.85 C23.48 44.15, 48 19.87, 65.46 -0.04 M-0.12 73.17 C11.84 58.68, 24.73 42.79, 64.75 -0.28 M-2 80.07 C24.54 49.79, 50.93 21.14, 70.67 -1.82 M-0.74 79.98 C21.37 56.41, 41.71 31.99, 67.99 0.74 M0.89 83.19 C22.57 56.86, 49.41 31.55, 72.44 -0.45 M1.13 85.99 C24.16 58.68, 48.23 32.03, 73.62 -0.23 M0.75 90.57 C30.52 59.81, 57.94 24.5, 79.16 1.8 M-0.97 90.59 C19.04 70.39, 37.82 47.86, 80.19 0.8 M-2.21 99.07 C25.3 64.92, 53.48 35.65, 86.22 0.74 M0.45 96.92 C26.39 66.47, 53.86 34.49, 84.55 -0.34 M1.06 102.2 C26.99 74.58, 51.9 42.86, 90.92 -0.86 M0.28 103.23 C33.21 65.63, 66.95 28.93, 90.98 0.16 M-1.31 111.13 C24.69 82.79, 45.86 54.72, 95.91 1.45 M-0.73 109.25 C32.67 74.01, 64.12 36.98, 95.81 -0.83 M0.66 114.25 C33.31 76.11, 68.49 39.11, 100.17 -1.27 M-0.03 115.99 C29.1 82.42, 56.8 50.53, 100.67 0.68 M1.76 122.03 C23.45 94.1, 48.26 70.86, 106.36 -0.64 M-0.05 121.89 C32.91 82.98, 67.16 45.93, 107.04 -1.05 M0.35 126.54 C37.98 87.63, 73.48 44.69, 111.85 1.92 M-0.23 128.59 C40.7 82.21, 82 34.28, 111.5 0.56 M0.59 134.5 C36.76 90.44, 73.76 47.59, 115.45 -1.29 M-0.6 133.35 C40.67 87.32, 81.97 40.77, 115.63 0.27 M0.63 138.4 C36.95 99.38, 72.43 59.32, 123.64 0.82 M-0.28 140.35 C36.01 98.64, 73.62 54.35, 122.56 -0.64 M1.45 146.01 C35.1 106.43, 69.32 67.21, 126.77 1.22 M-0.57 145.52 C50.72 88.16, 97.97 33.33, 126.32 0.99 M-0.23 151.35 C40.42 103.79, 87.33 52.49, 131.97 0.27 M-0.64 151.77 C49.61 98.26, 97.3 42.18, 132.84 -0.9 M0.59 159.5 C40.35 113.42, 79.73 69.02, 135.88 0.66 M-0.87 159.33 C37.84 115.74, 75.86 72.98, 138.19 1 M-1.47 163.55 C51.16 103.95, 101.77 47.86, 141.93 0.05 M0.86 164.22 C40.28 118.22, 79.5 72.25, 142.43 0.68 M1.82 170.04 C41.78 123.42, 79 78.45, 149.58 1.72 M0.79 170.27 C49.58 115.71, 95.38 62.14, 148.63 0.61 M5.81 171.02 C56.7 109.04, 110.28 47.55, 153.09 0.46 M5.87 170.21 C63.36 104.21, 120.04 37.73, 154.56 0.28 M10.52 169.44 C47.96 130.29, 83.51 87.72, 158.69 -0.32 M11.67 170.33 C63.08 109.09, 116.59 48.04, 159.16 -0.26 M16.44 170.33 C64.79 114.14, 111.18 59.36, 165.89 0.85 M16.41 169.98 C62.16 117.51, 106.51 65.97, 164.61 0.57 M21.25 169.53 C60.1 125.65, 100.9 79.5, 171.09 0 M21.4 170.23 C61.99 124.03, 101.34 78.21, 168.89 0.79 M26.74 170.73 C75.73 117.3, 122.04 61.53, 176.29 1.21 M26.94 170.54 C63.78 129.3, 98.56 89.45, 174.79 -0.74 M33.92 171.51 C85.1 110.53, 137.03 51.75, 178.95 -0.62 M32.79 169.69 C71.19 125.24, 109.49 79.75, 180.73 0.89 M36.25 170.11 C95.87 103.12, 153.61 35.73, 184.25 0.54 M37.53 171.01 C77.9 122.76, 117.9 75.9, 186.35 0.4 M42.16 168.66 C91.67 112.41, 140.08 58.8, 191.36 1.21 M42.51 169.59 C99.46 104.91, 155.02 38.96, 190.2 -0.37 M47.72 169.61 C96.27 117.12, 142.95 63, 195.51 -1.54 M47.72 169.54 C90.91 121.67, 134.25 72.3, 197.02 -0.22 M51.59 169.41 C107.36 108.64, 162.75 45.01, 196.46 6.13 M53.37 170.17 C83.82 135.92, 113.67 99.74, 196.48 5.95 M58.52 171.92 C86.95 136.76, 118.85 102.18, 194.96 13.28 M59.1 171.03 C91.48 131.87, 125.71 91.48, 195.84 12.32 M63.61 172.13 C109.29 121.14, 153.48 71.21, 197.75 18.9 M64.06 170.58 C111.77 116.91, 159.14 61.55, 196.63 18.37 M69.21 168.87 C111.11 124.23, 149.33 77.49, 196.38 23.62 M69.27 170.84 C105.85 126, 143.06 83.57, 196.52 25.22 M72.79 170.96 C117.08 122.03, 158.47 75.17, 194.7 29.19 M74.61 170.82 C120.57 116.92, 168.76 61.38, 196.71 31.02 M78.15 168.38 C107.95 139.01, 132.26 107.95, 194.16 35.66 M79.65 170.95 C110.44 134.95, 140.8 97.59, 195.53 37.49 M86.41 172.51 C105.93 146.21, 127.92 119.38, 195.63 44.58 M84.65 171.32 C115.31 135.44, 146.39 99.93, 196.32 43.52 M91.4 171.08 C121.46 137.07, 149.66 105.27, 197.75 48.19 M91.31 170.75 C131.7 123.69, 173.01 77.26, 195.79 49.61 M94.65 169.02 C118.42 140.44, 143.63 112.9, 197.2 56.48 M95.83 170.9 C132.91 128.48, 169.98 84.87, 195.55 55.21 M100.78 171.21 C135.39 133.61, 164.14 99.14, 197.44 58.71 M101.66 169.36 C135.46 131.17, 168.46 91.91, 197.08 61.48 M104.44 171.35 C128.83 142.45, 154.86 113.69, 197.66 66.27 M106.62 169.75 C124.38 148.87, 143.99 126.81, 195.86 66.52 M113.79 170.75 C147.06 131.49, 176.62 96.41, 197.58 74.23 M111.52 170.79 C132.53 143.96, 155.22 119.3, 196.44 74.08 M117.39 171.15 C144.27 138.57, 173.25 105.28, 197.62 80.37 M117.4 170.42 C140.61 143.28, 163.25 115.76, 195.77 78.99 M123.68 169.51 C138.34 152.76, 155.52 134.29, 197.2 86.29 M122.09 170.88 C143.44 145.65, 165.63 121.32, 195.76 85.49 M127.87 170.85 C148.58 147.09, 166.46 124.3, 197.42 92.96 M127.44 170.82 C151.94 140.34, 178.05 110.75, 197.17 91.03 M131.41 171.04 C150.34 150.59, 165.81 127.91, 196.09 97.49 M133.94 170.36 C159.81 141.11, 184.99 112.47, 196.86 98.43 M136.93 169.64 C157.46 145.63, 180.61 125.87, 194.45 104.77 M137.89 171.22 C154.6 150.7, 172.96 129.54, 195.7 103.66 M143.65 168.69 C154.83 158.45, 166.36 142.75, 195.42 108.44 M144.05 169.78 C156.46 154.61, 168.6 140.08, 197.09 110.22 M150.36 169.52 C162.75 157.18, 176.53 141.72, 195.8 114.04 M148.81 171.24 C167.29 149.41, 185.5 127.81, 196.35 116.48 M154.81 171.58 C172.44 149.19, 185.58 132.43, 195.06 120.51 M154.8 170.6 C165.77 158.2, 176.5 146.88, 195.71 122.52 M160.67 169.25 C171.87 157.06, 182.14 143.79, 196.29 127.06 M160.13 170.87 C168.33 158.77, 180.28 146.7, 196.53 127.22 M164.33 171.39 C173.11 158.85, 182.38 146.58, 194.96 134.66 M164.29 170.84 C174.82 158.91, 186.5 144.72, 196.21 135.12 M169.09 170.39 C176.97 164.21, 181.18 156.44, 195.15 141.15 M170.68 169.46 C176.3 162.52, 181.71 156.47, 195.71 139.73 M173.37 169.28 C182.12 162.74, 190.48 152.79, 195.75 146.31 M173.98 171.16 C181.26 164.61, 185.25 158.18, 195.92 145.92 M179.54 171.26 C188.45 164.18, 192.44 154.25, 197.28 151.4 M181.18 170.71 C185.88 164.92, 189.99 160.53, 195.73 151.7 M186.58 170.52 C189.6 167.55, 191.61 163.31, 196.66 159.68 M185.72 170.38 C189.16 166.21, 192.8 162.81, 195.32 158.43 M191.75 169.78 C192.31 167.91, 194.38 166.71, 195.43 165.11 M191.24 170.03 C192.79 168.62, 193.41 167.14, 195.61 164.76" stroke="#82c91e" stroke-width="0.5" fill="none"></path><path d="M-0.56 -0.58 C40.98 1.58, 85.22 -0.48, 197.15 -0.24 M-0.5 -0.76 C77.92 0.49, 155.4 0.07, 195.16 -0.27 M195.49 -0.35 C197.2 45.77, 199.28 96.51, 195.01 168.3 M195.08 -0.24 C198.03 34.3, 196.62 69.11, 196 169.94 M196.49 171.83 C153.13 170.25, 111.33 168.79, 0.97 171.5 M196.52 170.87 C137.62 172.29, 77.11 171.78, -0.66 170.55 M-1.93 171.49 C0.75 107, -0.48 40.38, 0.53 -1.72 M0.03 170.81 C2.33 131.56, 1.31 93.8, -0.1 0.92" stroke="#000000" stroke-width="1" fill="none"></path></g><g transform="translate(281 126) rotate(0 63.5 17.5)"><text x="63.5" y="25" font-family="Virgil, Segoe UI Emoji" font-size="28px" fill="#000000" text-anchor="middle" style="white-space: pre;" direction="ltr">UserDTO</text></g><g transform="translate(268.5 172.5) rotate(0 26 10)"><text x="26" y="14" font-family="Virgil, Segoe UI Emoji" font-size="16px" fill="#000000" text-anchor="middle" style="white-space: pre;" direction="ltr">- name</text></g><g transform="translate(269.5 200.5) rotate(0 26 10)"><text x="26" y="14" font-family="Virgil, Segoe UI Emoji" font-size="16px" fill="#000000" text-anchor="middle" style="white-space: pre;" direction="ltr">- roles</text></g><g stroke-linecap="round" transform="translate(587.5 156.5) rotate(0 61.5 42)"><path d="M0 0 C0 0, 0 0, 0 0 M0 0 C0 0, 0 0, 0 0 M-0.53 6.22 C1.8 5.19, 2.8 2.18, 5.47 0.8 M-0.29 6.58 C0.45 5.32, 1.69 3.84, 4.66 0.66 M1.3 10.63 C4.83 7, 8.19 4.15, 9.67 1.23 M0.12 12.38 C2.37 8.85, 5.74 6.31, 10.41 -0.2 M-0.02 20.39 C4.18 15.89, 6.28 8.45, 17.01 2.09 M-0.11 18.12 C5.93 11.59, 9.77 6.15, 15.54 0.95 M1.61 24.65 C8.34 14.37, 16.87 5.95, 22.72 1.35 M0.03 24.65 C7.82 15.88, 15.57 5.89, 21.37 -0.51 M-0.93 31.69 C7.2 21.89, 15.94 14.51, 26.82 1.54 M-0.99 30.1 C9.73 20.05, 17.13 10.73, 25.77 0.1 M-0.49 37.29 C9.7 27.23, 18.59 13.98, 32.13 0.98 M0.36 36.86 C12.36 21.48, 24.6 7.3, 32.24 0.73 M1.51 40.83 C11.74 30.34, 22.4 16.18, 35.56 0.27 M0.83 43.36 C10.92 31.24, 21.94 18.74, 37.68 1.03 M-2.11 47.76 C15.32 29, 30.57 12.9, 44.21 -1.5 M-0.49 48.72 C15.17 31.33, 29.09 15.5, 41.8 -0.26 M-0.8 54.48 C12.07 39.43, 27.71 24.66, 46.91 -0.57 M0.5 54.88 C11.76 41.47, 22.69 27.82, 46.91 1.1 M1.17 62.6 C18.48 40.16, 40.28 19.12, 54.29 -0.33 M0.79 61.05 C11.04 48.86, 21.42 36.39, 53.28 0.22 M0.2 67.8 C20.99 45.82, 37.73 19.34, 58.34 -1.1 M-1.1 67.8 C14.89 51.94, 28.46 35.81, 58.97 -0.45 M0.17 74.32 C23.47 45.47, 49.44 15.66, 64.48 0 M0.04 73.78 C16.81 53.58, 32.15 37.17, 63.22 0.23 M1.31 79.4 C15.46 61.05, 29.18 43.49, 67.1 -0.71 M0.21 79.36 C21.02 54.29, 43.22 30.38, 68.23 0.54 M2.2 83.39 C28.72 54.68, 56.13 22.26, 73.67 -1.32 M0.57 84.99 C26.58 55.01, 52.49 24.51, 74.56 -0.75 M4.04 83.05 C23.15 60.82, 45.21 38.71, 80.23 -0.09 M6.91 83.66 C28.29 61.6, 49.22 35.88, 78.92 0.09 M12.84 83.19 C29.55 64.98, 47.57 42.22, 83.54 0.65 M12.13 84.83 C31.52 63.06, 50.23 40.51, 85.58 -0.89 M18.14 85.84 C35.72 64.65, 54.75 42.2, 88.55 0.79 M16.29 84.77 C43.35 53.9, 70.37 22.72, 90.13 -0.88 M22.44 85.69 C41.56 58.61, 62.8 35.51, 96.54 -1.45 M22.28 84.23 C45.88 57.5, 69.77 28.28, 94.92 -0.94 M26.83 86.31 C45.73 64.63, 62.35 42.02, 100.64 0.7 M26.71 83.89 C54.94 52.12, 82.73 19.88, 100.81 0.45 M32.32 83.03 C46.98 65.83, 65.39 46.94, 105.91 -1.26 M31.61 85.45 C58.85 52.4, 87.17 20.44, 106.59 -1.26 M36.74 83.45 C58.64 60.38, 82.46 37.11, 112.89 -0.89 M38.5 85.34 C58.38 60.9, 78.18 39.4, 110.76 -0.22 M41.55 85.81 C60.98 60.21, 81.67 41.02, 117.02 0.07 M43.56 85.37 C59.91 65.01, 77.52 46.33, 116.29 -0.07 M47.25 83.97 C71.78 61.32, 92.01 34.83, 123.46 -1.8 M48.31 84.85 C68.11 62.82, 87.83 38.59, 121.66 0.72 M52.99 85.59 C77.39 58.97, 101.29 29.18, 126.65 2.33 M53.45 85.03 C82.63 52.06, 110.05 18.97, 125.74 2.04 M60.55 84.29 C86.6 55.86, 109.88 26.11, 127.06 9.2 M58.19 84.5 C79.7 61.63, 99.08 37.96, 124.8 8.03 M65.96 85.91 C79.47 68.79, 91.95 52.66, 123.22 15.62 M64.12 85.6 C88.21 58.61, 112.13 30.92, 125.84 14.44 M71.57 84.58 C92.27 58.79, 111.31 38.32, 127.36 21.2 M70.53 83.8 C89.7 62.31, 108.08 38.64, 124.52 19.59 M73.57 85.02 C87.03 73.02, 97.06 60.79, 125.57 25.09 M74.27 84.14 C95.39 61.89, 113.43 39.4, 124.53 26.26 M82.07 82.68 C90.69 72.5, 100.12 60.09, 127.14 32.79 M81.08 84.62 C95.54 66.53, 112.11 48.6, 125.33 32.86 M84.68 85.91 C95.25 73.47, 105.95 58.47, 126.19 40.46 M85.46 84.62 C100.93 68.45, 114.75 50.77, 124.95 38.84 M90.56 84.18 C97.14 75.27, 105.89 66.14, 127.02 45.78 M89.96 84.25 C100.07 74.23, 108 65.37, 125.69 45.78 M93.96 86.26 C102.49 77.45, 109.9 69.96, 125.01 52.41 M95.1 84.87 C102.23 77.26, 107.93 69.67, 126.26 51.15 M102.34 84.39 C107.91 77.68, 109.22 72.63, 125.39 56.45 M100.64 84.35 C109.66 75.54, 116.89 66.35, 124.88 56.88 M107.85 84.48 C109.86 77.53, 115.61 74.09, 126.73 63.33 M107.47 85.62 C113.37 77.51, 118.81 69.18, 125.98 63.56 M111.48 82.32 C118.34 80.11, 122.15 75.73, 124.43 70.06 M112.94 83.97 C116.38 78.41, 121.51 73.95, 126.05 68.84 M118.02 85.29 C119.04 81.53, 123.6 79.16, 125.74 74.7 M116.9 85.17 C120.1 81.21, 122.46 77.99, 124.62 75.6" stroke="#fd7e14" stroke-width="0.5" fill="none"></path><path d="M-1.05 -1.52 C45.15 0.97, 88.27 0.71, 122.75 -1.64 M-0.11 0.3 C30.82 -1.02, 61.86 -0.2, 122.64 0.37 M124.7 -1.8 C120.62 32.85, 123.46 61.95, 124.18 82.09 M123.05 -0.3 C123.5 21.62, 123.58 41.84, 122.49 83.46 M122.09 85.47 C77.36 82.3, 28.58 82.03, -0.46 83.81 M122.51 83.72 C77.24 84.06, 30.35 83.79, 0.94 84.51 M0.39 84.82 C1.13 55.87, 0.64 25.66, 1.93 1.54 M-0.7 84.73 C-0.15 60.91, -0.93 38.12, 0.41 -0.42" stroke="#000000" stroke-width="1" fill="none"></path></g><g transform="translate(613.5 186) rotate(0 34 12.5)"><text x="0" y="18" font-family="Virgil, Segoe UI Emoji" font-size="20px" fill="#000000" text-anchor="start" style="white-space: pre;" direction="ltr">Mapper</text></g><g stroke-linecap="round"><g transform="translate(860.5 127.5) rotate(0 -73.89988447055225 32.00057533763351)"><path d="M1.1 -0.28 C-23.74 10.38, -123.44 53.22, -148.32 63.96 M0.22 -1.47 C-24.78 9.39, -124.12 54.3, -148.9 65.47" stroke="#000000" stroke-width="1" fill="none"></path></g><g transform="translate(860.5 127.5) rotate(0 -73.89988447055225 32.00057533763351)"><path d="M-127.89 45.67 C-135.26 53.73, -142.69 58.79, -148.68 64.6 M-127.89 45.13 C-134.01 50.59, -139.51 57.18, -148.62 66.1" stroke="#000000" stroke-width="1" fill="none"></path></g><g transform="translate(860.5 127.5) rotate(0 -73.89988447055225 32.00057533763351)"><path d="M-119.45 64.37 C-129.87 65.75, -140.35 64.05, -148.68 64.6 M-119.45 63.84 C-127.82 63.97, -135.73 65.23, -148.62 66.1" stroke="#000000" stroke-width="1" fill="none"></path></g></g><g stroke-linecap="round"><g transform="translate(857.5 282.5) rotate(0 -72.24289386814462 -43.17509008438333)"><path d="M-0.48 0.14 C-24.85 -13.99, -121.25 -70.75, -145.35 -84.93 M1.47 -0.82 C-23.08 -15.26, -121.48 -72.17, -145.96 -86.49" stroke="#000000" stroke-width="1" fill="none"></path></g><g transform="translate(857.5 282.5) rotate(0 -72.24289386814462 -43.17509008438333)"><path d="M-116.19 -80.12 C-125.75 -81.79, -136.92 -84.07, -146 -85.7 M-116.08 -80.36 C-123.26 -82.77, -129.25 -83.07, -146.81 -85.99" stroke="#000000" stroke-width="1" fill="none"></path></g><g transform="translate(857.5 282.5) rotate(0 -72.24289386814462 -43.17509008438333)"><path d="M-126.51 -62.37 C-132.17 -70.67, -139.46 -79.63, -146 -85.7 M-126.4 -62.62 C-131.27 -68.98, -134.93 -73.3, -146.81 -85.99" stroke="#000000" stroke-width="1" fill="none"></path></g></g><g stroke-linecap="round"><g transform="translate(587.9225322965533 202.37648692212997) rotate(0 -69.60989093165847 -1.8007544622197997)"><path d="M-1.17 -0.05 C-24.54 -0.75, -116.17 -2.91, -139.29 -3.55 M0.42 -1.12 C-23.09 -1.74, -116.18 -2.04, -139.64 -2.37" stroke="#000000" stroke-width="1" fill="none"></path></g><g transform="translate(587.9225322965533 202.37648692212997) rotate(0 -69.60989093165847 -1.8007544622197997)"><path d="M-111.45 -10.51 C-123.13 -8, -134.36 -4.96, -137.75 -0.94 M-111.62 -12.85 C-120.64 -9.89, -128.19 -5.96, -139.65 -2.04" stroke="#000000" stroke-width="1" fill="none"></path></g><g transform="translate(587.9225322965533 202.37648692212997) rotate(0 -69.60989093165847 -1.8007544622197997)"><path d="M-111.62 10.01 C-123.34 4.77, -134.52 0.05, -137.75 -0.94 M-111.79 7.67 C-120.83 4.47, -128.33 2.25, -139.65 -2.04" stroke="#000000" stroke-width="1" fill="none"></path></g></g><g stroke-linecap="round"><g transform="translate(219.5 163.5) rotate(0 -42.75351010783578 -13.060972437504688)"><path d="M1 -0.77 C-13.48 -4.99, -71.29 -21.27, -86.05 -25.63 M0.06 1.44 C-14.56 -3.12, -71.73 -22.97, -86.51 -27.56" stroke="#000000" stroke-width="1" fill="none"></path></g><g transform="translate(219.5 163.5) rotate(0 -42.75351010783578 -13.060972437504688)"><path d="M-57.8 -26.88 C-66.88 -28.81, -80.01 -29.44, -87.91 -29.39 M-56.41 -27.57 C-64.86 -27.74, -73.67 -27.92, -87.3 -26.69" stroke="#000000" stroke-width="1" fill="none"></path></g><g transform="translate(219.5 163.5) rotate(0 -42.75351010783578 -13.060972437504688)"><path d="M-64.24 -7.39 C-70.92 -16.51, -81.69 -24.27, -87.91 -29.39 M-62.85 -8.09 C-69.6 -13.9, -76.53 -19.77, -87.3 -26.69" stroke="#000000" stroke-width="1" fill="none"></path></g></g><g stroke-linecap="round"><g transform="translate(210.58779475316396 186.09810033187273) rotate(0 -47.9066687314957 30.239269381761517)"><path d="M1.04 -0.43 C-14.93 9.88, -79.47 50.41, -95.63 60.9 M0.13 -1.7 C-16.07 8.85, -81.27 51.76, -96.86 62.18" stroke="#000000" stroke-width="1" fill="none"></path></g><g transform="translate(210.58779475316396 186.09810033187273) rotate(0 -47.9066687314957 30.239269381761517)"><path d="M-79.73 37.16 C-85.72 44.58, -88.66 52.26, -97.98 60.89 M-79.67 39.03 C-82.41 42.69, -87.53 49.3, -97.34 61.98" stroke="#000000" stroke-width="1" fill="none"></path></g><g transform="translate(210.58779475316396 186.09810033187273) rotate(0 -47.9066687314957 30.239269381761517)"><path d="M-68.4 54.27 C-77.85 56.34, -84.41 58.58, -97.98 60.89 M-68.34 56.14 C-73.65 55.72, -81.41 58.35, -97.34 61.98" stroke="#000000" stroke-width="1" fill="none"></path></g></g><g stroke-linecap="round"><g transform="translate(592.7112661482765 200.93824346106499) rotate(178.11337024221854 -70.12724613975735 -1.6043401751480815)"><path d="M0.98 -1.13 C-22.63 -1.46, -117.5 -2.02, -141.24 -2.29 M0.04 0.89 C-23.23 0.23, -115.77 -3.73, -138.95 -4.1" stroke="#000000" stroke-width="1" fill="none"></path></g><g transform="translate(592.7112661482765 200.93824346106499) rotate(178.11337024221854 -70.12724613975735 -1.6043401751480815)"><path d="M-112.34 -14.84 C-119.11 -11.78, -129.43 -6.98, -139.63 -4.91 M-111.41 -13.09 C-116.9 -11.06, -122.13 -8.71, -139.57 -5.07" stroke="#000000" stroke-width="1" fill="none"></path></g><g transform="translate(592.7112661482765 200.93824346106499) rotate(178.11337024221854 -70.12724613975735 -1.6043401751480815)"><path d="M-112.98 5.67 C-119.48 1.81, -129.59 -0.31, -139.63 -4.91 M-112.05 7.42 C-117.57 5.21, -122.67 3.33, -139.57 -5.07" stroke="#000000" stroke-width="1" fill="none"></path></g></g><g stroke-linecap="round"><g transform="translate(230 168.5) rotate(180.52882321241023 -42.3053143968433 -12.092770482450703)"><path d="M-0.28 -0.61 C-14.71 -4.75, -71.42 -21.53, -85.97 -25.88 M1.77 1.69 C-12.78 -2.16, -71.31 -19.7, -86.38 -24.27" stroke="#000000" stroke-width="1" fill="none"></path></g><g transform="translate(230 168.5) rotate(180.52882321241023 -42.3053143968433 -12.092770482450703)"><path d="M-57.44 -24.27 C-66.74 -26.42, -78.58 -25.98, -87.9 -24.3 M-56.43 -26.76 C-66.53 -25.35, -76.57 -25.44, -85.73 -24.98" stroke="#000000" stroke-width="1" fill="none"></path></g><g transform="translate(230 168.5) rotate(180.52882321241023 -42.3053143968433 -12.092770482450703)"><path d="M-63.35 -4.62 C-70.41 -13.65, -80.18 -20.09, -87.9 -24.3 M-62.33 -7.11 C-70.62 -12.3, -78.67 -19.02, -85.73 -24.98" stroke="#000000" stroke-width="1" fill="none"></path></g></g><g stroke-linecap="round"><g transform="translate(228.30794978382778 177.53394769522504) rotate(178.99092658603138 -53.12906846055097 31.859795594329285)"><path d="M0.03 1.19 C-17.63 11.86, -87.99 52.96, -105.45 62.94 M-1.41 0.78 C-19.25 11.19, -89.03 51.05, -106.29 61.23" stroke="#000000" stroke-width="1" fill="none"></path></g><g transform="translate(228.30794978382778 177.53394769522504) rotate(178.99092658603138 -53.12906846055097 31.859795594329285)"><path d="M-85.05 38.57 C-92.51 47.66, -102.15 54.38, -105.8 63.2 M-86.2 38.69 C-94.27 46.23, -99.96 53.3, -106.54 60.33" stroke="#000000" stroke-width="1" fill="none"></path></g><g transform="translate(228.30794978382778 177.53394769522504) rotate(178.99092658603138 -53.12906846055097 31.859795594329285)"><path d="M-74.76 56.33 C-85.59 59.34, -98.75 59.99, -105.8 63.2 M-75.92 56.44 C-87.61 57.84, -96.83 58.8, -106.54 60.33" stroke="#000000" stroke-width="1" fill="none"></path></g></g><g stroke-linecap="round"><g transform="translate(873 125.5) rotate(179.42679143871285 -74.14208631269639 31.821599835082907)"><path d="M-0.53 0.32 C-25.27 11.01, -123.93 52.54, -148.82 63.12 M1.4 -0.55 C-23.46 10.36, -124.87 53.26, -149.68 64.2" stroke="#000000" stroke-width="1" fill="none"></path></g><g transform="translate(873 125.5) rotate(179.42679143871285 -74.14208631269639 31.821599835082907)"><path d="M-127.31 43.91 C-135.4 47.61, -140.14 53.1, -149.73 63.44 M-128.14 43.36 C-136.51 51.11, -143.92 57.97, -149.14 65.16" stroke="#000000" stroke-width="1" fill="none"></path></g><g transform="translate(873 125.5) rotate(179.42679143871285 -74.14208631269639 31.821599835082907)"><path d="M-119.19 62.76 C-129.32 61.31, -136.25 61.71, -149.73 63.44 M-120.02 62.21 C-131.11 63.18, -141.42 63.3, -149.14 65.16" stroke="#000000" stroke-width="1" fill="none"></path></g></g><g stroke-linecap="round"><g transform="translate(857.5 280.5) rotate(178.8174061910835 -72.42956062398855 -42.251299999207276)"><path d="M-0.72 -0.69 C-25.04 -14.88, -121.29 -71.65, -145.35 -86.07 M1.1 1.57 C-23.37 -12.35, -121.54 -69.89, -145.96 -84.57" stroke="#000000" stroke-width="1" fill="none"></path></g><g transform="translate(857.5 280.5) rotate(178.8174061910835 -72.42956062398855 -42.251299999207276)"><path d="M-117.62 -77.96 C-126.76 -79.67, -138.82 -84.13, -144.94 -83.46 M-116.2 -79.91 C-124.73 -79.53, -132.6 -81.58, -146.89 -85.04" stroke="#000000" stroke-width="1" fill="none"></path></g><g transform="translate(857.5 280.5) rotate(178.8174061910835 -72.42956062398855 -42.251299999207276)"><path d="M-128.08 -60.3 C-133.46 -68.06, -141.9 -78.64, -144.94 -83.46 M-126.66 -62.26 C-132.51 -66.67, -137.54 -73.53, -146.89 -85.04" stroke="#000000" stroke-width="1" fill="none"></path></g></g></svg>